<svg xmlns="http://www.w3.org/2000/svg" width="1200" height="1100" viewBox="0 0 1200 1100"><rect width="1200" height="1100" fill="#fff"/><text x="30" y="30" font-family="Arial" font-size="21" font-weight="700" fill="#172b3a">Four-tool benchmark: known-truth accuracy and real-world disagreement</text><text x="30" y="51" font-family="Arial" font-size="12" fill="#526273">Synthetic raw accuracy is separated from 1% thresholded reporting behavior; real PCAWG results quantify tool-to-tool divergence without truth labels.</text><rect x="30" y="65" width="11" height="11" fill="#2f6f8f"/><text x="46" y="75" font-family="Arial" font-size="10" fill="#526273">deconstructSigs</text><rect x="205" y="65" width="11" height="11" fill="#d77936"/><text x="221" y="75" font-family="Arial" font-size="10" fill="#526273">sigminer</text><rect x="340" y="65" width="11" height="11" fill="#5b8e55"/><text x="356" y="75" font-family="Arial" font-size="10" fill="#526273">SigProfilerAssignment</text><rect x="575" y="65" width="11" height="11" fill="#9a5b9d"/><text x="591" y="75" font-family="Arial" font-size="10" fill="#526273">MuSiCal</text><rect x="30" y="90" width="560" height="280" fill="#fbfcfd" stroke="#d8e1e7"/><text x="46" y="113" font-family="Arial, sans-serif" font-size="15" font-weight="700" fill="#172b3a" text-anchor="start">A. Synthetic raw exposure accuracy</text><text x="46" y="131" font-family="Arial, sans-serif" font-size="10" font-weight="400" fill="#526273" text-anchor="start">Mean cosine to published true fractions; no post-fit cutoff</text><line x1="78" y1="338" x2="572" y2="338" stroke="#dbe3e8"/><text x="70" y="342" font-family="Arial, sans-serif" font-size="10" font-weight="400" fill="#667887" text-anchor="end">0.0</text><line x1="78" y1="242" x2="572" y2="242" stroke="#dbe3e8"/><text x="70" y="246" font-family="Arial, sans-serif" font-size="10" font-weight="400" fill="#667887" text-anchor="end">0.5</text><line x1="78" y1="146" x2="572" y2="146" stroke="#dbe3e8"/><text x="70" y="150" font-family="Arial, sans-serif" font-size="10" font-weight="400" fill="#667887" text-anchor="end">1.0</text><rect x="122.33333333333333" y="146.7728" width="17" height="191.2272" fill="#2f6f8f"/><rect x="141.33333333333331" y="146.0096" width="17" height="191.9904" fill="#d77936"/><rect x="160.33333333333331" y="146.402624" width="17" height="191.597376" fill="#5b8e55"/><rect x="179.33333333333331" y="146.073152" width="17" height="191.926848" fill="#9a5b9d"/><text x="160.33333333333331" y="356" font-family="Arial, sans-serif" font-size="11" font-weight="400" fill="#526273" text-anchor="middle">0%</text><rect x="287" y="149.05337600000001" width="17" height="188.94662399999999" fill="#2f6f8f"/><rect x="306" y="147.437312" width="17" height="190.562688" fill="#d77936"/><rect x="325" y="146.978624" width="17" height="191.021376" fill="#5b8e55"/><rect x="344" y="146.189312" width="17" height="191.810688" fill="#9a5b9d"/><text x="325" y="356" font-family="Arial, sans-serif" font-size="11" font-weight="400" fill="#526273" text-anchor="middle">5%</text><rect x="451.66666666666663" y="152.304896" width="17" height="185.695104" fill="#2f6f8f"/><rect x="470.66666666666663" y="151.526528" width="17" height="186.473472" fill="#d77936"/><rect x="489.66666666666663" y="147.74816" width="17" height="190.25184" fill="#5b8e55"/><rect x="508.66666666666663" y="146.73171200000002" width="17" height="191.26828799999998" fill="#9a5b9d"/><text x="489.66666666666663" y="356" font-family="Arial, sans-serif" font-size="11" font-weight="400" fill="#526273" text-anchor="middle">10%</text><rect x="610" y="90" width="560" height="280" fill="#fbfcfd" stroke="#d8e1e7"/><text x="626" y="113" font-family="Arial, sans-serif" font-size="15" font-weight="700" fill="#172b3a" text-anchor="start">B. Synthetic active-call performance</text><text x="626" y="131" font-family="Arial, sans-serif" font-size="10" font-weight="400" fill="#526273" text-anchor="start">Mean F1 after common 1% cutoff; truth activity > 0</text><line x1="658" y1="338" x2="1152" y2="338" stroke="#dbe3e8"/><text x="650" y="342" font-family="Arial, sans-serif" font-size="10" font-weight="400" fill="#667887" text-anchor="end">0.0</text><line x1="658" y1="242" x2="1152" y2="242" stroke="#dbe3e8"/><text x="650" y="246" font-family="Arial, sans-serif" font-size="10" font-weight="400" fill="#667887" text-anchor="end">0.5</text><line x1="658" y1="146" x2="1152" y2="146" stroke="#dbe3e8"/><text x="650" y="150" font-family="Arial, sans-serif" font-size="10" font-weight="400" fill="#667887" text-anchor="end">1.0</text><rect x="702.3333333333334" y="170.971904" width="17" height="167.028096" fill="#2f6f8f"/><rect x="721.3333333333334" y="151.903232" width="17" height="186.096768" fill="#d77936"/><rect x="740.3333333333334" y="156.240704" width="17" height="181.759296" fill="#5b8e55"/><rect x="759.3333333333334" y="155.475584" width="17" height="182.524416" fill="#9a5b9d"/><text x="740.3333333333334" y="356" font-family="Arial, sans-serif" font-size="11" font-weight="400" fill="#526273" text-anchor="middle">0%</text><rect x="867" y="203.07008" width="17" height="134.92992" fill="#2f6f8f"/><rect x="886" y="196.823936" width="17" height="141.176064" fill="#d77936"/><rect x="905" y="159.923072" width="17" height="178.076928" fill="#5b8e55"/><rect x="924" y="156.49356799999998" width="17" height="181.50643200000002" fill="#9a5b9d"/><text x="905" y="356" font-family="Arial, sans-serif" font-size="11" font-weight="400" fill="#526273" text-anchor="middle">5%</text><rect x="1031.6666666666665" y="231.272576" width="17" height="106.72742400000001" fill="#2f6f8f"/><rect x="1050.6666666666665" y="235.818944" width="17" height="102.18105600000001" fill="#d77936"/><rect x="1069.6666666666665" y="162.97472" width="17" height="175.02528" fill="#5b8e55"/><rect x="1088.6666666666665" y="160.499456" width="17" height="177.500544" fill="#9a5b9d"/><text x="1069.6666666666665" y="356" font-family="Arial, sans-serif" font-size="11" font-weight="400" fill="#526273" text-anchor="middle">10%</text><rect x="30" y="400" width="560" height="280" fill="#fbfcfd" stroke="#d8e1e7"/><text x="46" y="424" font-family="Arial, sans-serif" font-size="15" fill="#172b3a" text-anchor="start">C. Real PCAWG exposure correlation</text><text x="46" y="442" font-family="Arial, sans-serif" font-size="10" fill="#526273" text-anchor="start">Flattened complete-catalog relative fractions</text><text x="159" y="463" font-family="Arial, sans-serif" font-size="9" fill="#526273" text-anchor="middle">dSigs</text><text x="127" y="502" font-family="Arial, sans-serif" font-size="9" fill="#526273" text-anchor="end">deconstructSigs</text><rect x="135" y="472" width="48" height="48" fill="rgb(90,140,215)" stroke="#fff"/><text x="159" y="501" font-family="Arial, sans-serif" font-size="11" fill="#fff" text-anchor="middle">1.00</text><rect x="185" y="472" width="48" height="48" fill="rgb(125,165,223)" stroke="#fff"/><text x="209" y="501" font-family="Arial, sans-serif" font-size="11" fill="#fff" text-anchor="middle">0.95</text><rect x="235" y="472" width="48" height="48" fill="rgb(223,233,246)" stroke="#fff"/><text x="259" y="501" font-family="Arial, sans-serif" font-size="11" fill="#243447" text-anchor="middle">0.82</text><rect x="285" y="472" width="48" height="48" fill="rgb(160,189,231)" stroke="#fff"/><text x="309" y="501" font-family="Arial, sans-serif" font-size="11" fill="#fff" text-anchor="middle">0.91</text><text x="209" y="463" font-family="Arial, sans-serif" font-size="9" fill="#526273" text-anchor="middle">sigminer</text><text x="127" y="552" font-family="Arial, sans-serif" font-size="9" fill="#526273" text-anchor="end">sigminer</text><rect x="135" y="522" width="48" height="48" fill="rgb(125,165,223)" stroke="#fff"/><text x="159" y="551" font-family="Arial, sans-serif" font-size="11" fill="#fff" text-anchor="middle">0.95</text><rect x="185" y="522" width="48" height="48" fill="rgb(90,140,215)" stroke="#fff"/><text x="209" y="551" font-family="Arial, sans-serif" font-size="11" fill="#fff" text-anchor="middle">1.00</text><rect x="235" y="522" width="48" height="48" fill="rgb(238,244,250)" stroke="#fff"/><text x="259" y="551" font-family="Arial, sans-serif" font-size="11" fill="#243447" text-anchor="middle">0.80</text><rect x="285" y="522" width="48" height="48" fill="rgb(137,173,226)" stroke="#fff"/><text x="309" y="551" font-family="Arial, sans-serif" font-size="11" fill="#fff" text-anchor="middle">0.94</text><text x="259" y="463" font-family="Arial, sans-serif" font-size="9" fill="#526273" text-anchor="middle">SPA</text><text x="127" y="602" font-family="Arial, sans-serif" font-size="9" fill="#526273" text-anchor="end">SPA</text><rect x="135" y="572" width="48" height="48" fill="rgb(223,233,246)" stroke="#fff"/><text x="159" y="601" font-family="Arial, sans-serif" font-size="11" fill="#243447" text-anchor="middle">0.82</text><rect x="185" y="572" width="48" height="48" fill="rgb(238,244,250)" stroke="#fff"/><text x="209" y="601" font-family="Arial, sans-serif" font-size="11" fill="#243447" text-anchor="middle">0.80</text><rect x="235" y="572" width="48" height="48" fill="rgb(90,140,215)" stroke="#fff"/><text x="259" y="601" font-family="Arial, sans-serif" font-size="11" fill="#fff" text-anchor="middle">1.00</text><rect x="285" y="572" width="48" height="48" fill="rgb(229,237,247)" stroke="#fff"/><text x="309" y="601" font-family="Arial, sans-serif" font-size="11" fill="#243447" text-anchor="middle">0.81</text><text x="309" y="463" font-family="Arial, sans-serif" font-size="9" fill="#526273" text-anchor="middle">MuSiCal</text><text x="127" y="652" font-family="Arial, sans-serif" font-size="9" fill="#526273" text-anchor="end">MuSiCal</text><rect x="135" y="622" width="48" height="48" fill="rgb(160,189,231)" stroke="#fff"/><text x="159" y="651" font-family="Arial, sans-serif" font-size="11" fill="#fff" text-anchor="middle">0.91</text><rect x="185" y="622" width="48" height="48" fill="rgb(137,173,226)" stroke="#fff"/><text x="209" y="651" font-family="Arial, sans-serif" font-size="11" fill="#fff" text-anchor="middle">0.94</text><rect x="235" y="622" width="48" height="48" fill="rgb(229,237,247)" stroke="#fff"/><text x="259" y="651" font-family="Arial, sans-serif" font-size="11" fill="#243447" text-anchor="middle">0.81</text><rect x="285" y="622" width="48" height="48" fill="rgb(90,140,215)" stroke="#fff"/><text x="309" y="651" font-family="Arial, sans-serif" font-size="11" fill="#fff" text-anchor="middle">1.00</text><rect x="610" y="400" width="560" height="280" fill="#fbfcfd" stroke="#d8e1e7"/><text x="626" y="424" font-family="Arial, sans-serif" font-size="15" fill="#172b3a" text-anchor="start">D. Real PCAWG per-sample disagreement</text><text x="626" y="442" font-family="Arial, sans-serif" font-size="10" fill="#526273" text-anchor="start">Mean L1 distance between relative-exposure vectors</text><text x="739" y="463" font-family="Arial, sans-serif" font-size="9" fill="#526273" text-anchor="middle">dSigs</text><text x="707" y="502" font-family="Arial, sans-serif" font-size="9" fill="#526273" text-anchor="end">deconstructSigs</text><rect x="715" y="472" width="48" height="48" fill="rgb(240,245,250)" stroke="#fff"/><text x="739" y="501" font-family="Arial, sans-serif" font-size="11" fill="#243447" text-anchor="middle">0.00</text><rect x="765" y="472" width="48" height="48" fill="rgb(188,208,238)" stroke="#fff"/><text x="789" y="501" font-family="Arial, sans-serif" font-size="11" fill="#243447" text-anchor="middle">0.35</text><rect x="815" y="472" width="48" height="48" fill="rgb(114,157,221)" stroke="#fff"/><text x="839" y="501" font-family="Arial, sans-serif" font-size="11" fill="#fff" text-anchor="middle">0.84</text><rect x="865" y="472" width="48" height="48" fill="rgb(159,188,231)" stroke="#fff"/><text x="889" y="501" font-family="Arial, sans-serif" font-size="11" fill="#fff" text-anchor="middle">0.54</text><text x="789" y="463" font-family="Arial, sans-serif" font-size="9" fill="#526273" text-anchor="middle">sigminer</text><text x="707" y="552" font-family="Arial, sans-serif" font-size="9" fill="#526273" text-anchor="end">sigminer</text><rect x="715" y="522" width="48" height="48" fill="rgb(188,208,238)" stroke="#fff"/><text x="739" y="551" font-family="Arial, sans-serif" font-size="11" fill="#243447" text-anchor="middle">0.35</text><rect x="765" y="522" width="48" height="48" fill="rgb(240,245,250)" stroke="#fff"/><text x="789" y="551" font-family="Arial, sans-serif" font-size="11" fill="#243447" text-anchor="middle">0.00</text><rect x="815" y="522" width="48" height="48" fill="rgb(104,150,218)" stroke="#fff"/><text x="839" y="551" font-family="Arial, sans-serif" font-size="11" fill="#fff" text-anchor="middle">0.91</text><rect x="865" y="522" width="48" height="48" fill="rgb(175,199,235)" stroke="#fff"/><text x="889" y="551" font-family="Arial, sans-serif" font-size="11" fill="#243447" text-anchor="middle">0.44</text><text x="839" y="463" font-family="Arial, sans-serif" font-size="9" fill="#526273" text-anchor="middle">SPA</text><text x="707" y="602" font-family="Arial, sans-serif" font-size="9" fill="#526273" text-anchor="end">SPA</text><rect x="715" y="572" width="48" height="48" fill="rgb(114,157,221)" stroke="#fff"/><text x="739" y="601" font-family="Arial, sans-serif" font-size="11" fill="#fff" text-anchor="middle">0.84</text><rect x="765" y="572" width="48" height="48" fill="rgb(104,150,218)" stroke="#fff"/><text x="789" y="601" font-family="Arial, sans-serif" font-size="11" fill="#fff" text-anchor="middle">0.91</text><rect x="815" y="572" width="48" height="48" fill="rgb(240,245,250)" stroke="#fff"/><text x="839" y="601" font-family="Arial, sans-serif" font-size="11" fill="#243447" text-anchor="middle">0.00</text><rect x="865" y="572" width="48" height="48" fill="rgb(120,161,222)" stroke="#fff"/><text x="889" y="601" font-family="Arial, sans-serif" font-size="11" fill="#fff" text-anchor="middle">0.80</text><text x="889" y="463" font-family="Arial, sans-serif" font-size="9" fill="#526273" text-anchor="middle">MuSiCal</text><text x="707" y="652" font-family="Arial, sans-serif" font-size="9" fill="#526273" text-anchor="end">MuSiCal</text><rect x="715" y="622" width="48" height="48" fill="rgb(159,188,231)" stroke="#fff"/><text x="739" y="651" font-family="Arial, sans-serif" font-size="11" fill="#fff" text-anchor="middle">0.54</text><rect x="765" y="622" width="48" height="48" fill="rgb(175,199,235)" stroke="#fff"/><text x="789" y="651" font-family="Arial, sans-serif" font-size="11" fill="#243447" text-anchor="middle">0.44</text><rect x="815" y="622" width="48" height="48" fill="rgb(120,161,222)" stroke="#fff"/><text x="839" y="651" font-family="Arial, sans-serif" font-size="11" fill="#fff" text-anchor="middle">0.80</text><rect x="865" y="622" width="48" height="48" fill="rgb(240,245,250)" stroke="#fff"/><text x="889" y="651" font-family="Arial, sans-serif" font-size="11" fill="#243447" text-anchor="middle">0.00</text><rect x="30" y="710" width="560" height="280" fill="#fbfcfd" stroke="#d8e1e7"/><text x="46" y="734" font-family="Arial, sans-serif" font-size="15" fill="#172b3a" text-anchor="start">E. Real PCAWG active-signature concordance</text><text x="46" y="752" font-family="Arial, sans-serif" font-size="10" fill="#526273" text-anchor="start">Mean Jaccard after the common 1% cutoff</text><text x="159" y="773" font-family="Arial, sans-serif" font-size="9" fill="#526273" text-anchor="middle">dSigs</text><text x="127" y="812" font-family="Arial, sans-serif" font-size="9" fill="#526273" text-anchor="end">deconstructSigs</text><rect x="135" y="782" width="48" height="48" fill="rgb(90,140,215)" stroke="#fff"/><text x="159" y="811" font-family="Arial, sans-serif" font-size="11" fill="#fff" text-anchor="middle">1.00</text><rect x="185" y="782" width="48" height="48" fill="rgb(136,172,226)" stroke="#fff"/><text x="209" y="811" font-family="Arial, sans-serif" font-size="11" fill="#fff" text-anchor="middle">0.69</text><rect x="235" y="782" width="48" height="48" fill="rgb(211,225,243)" stroke="#fff"/><text x="259" y="811" font-family="Arial, sans-serif" font-size="11" fill="#243447" text-anchor="middle">0.19</text><rect x="285" y="782" width="48" height="48" fill="rgb(168,195,233)" stroke="#fff"/><text x="309" y="811" font-family="Arial, sans-serif" font-size="11" fill="#243447" text-anchor="middle">0.48</text><text x="209" y="773" font-family="Arial, sans-serif" font-size="9" fill="#526273" text-anchor="middle">sigminer</text><text x="127" y="862" font-family="Arial, sans-serif" font-size="9" fill="#526273" text-anchor="end">sigminer</text><rect x="135" y="832" width="48" height="48" fill="rgb(136,172,226)" stroke="#fff"/><text x="159" y="861" font-family="Arial, sans-serif" font-size="11" fill="#fff" text-anchor="middle">0.69</text><rect x="185" y="832" width="48" height="48" fill="rgb(90,140,215)" stroke="#fff"/><text x="209" y="861" font-family="Arial, sans-serif" font-size="11" fill="#fff" text-anchor="middle">1.00</text><rect x="235" y="832" width="48" height="48" fill="rgb(212,225,243)" stroke="#fff"/><text x="259" y="861" font-family="Arial, sans-serif" font-size="11" fill="#243447" text-anchor="middle">0.19</text><rect x="285" y="832" width="48" height="48" fill="rgb(155,186,230)" stroke="#fff"/><text x="309" y="861" font-family="Arial, sans-serif" font-size="11" fill="#fff" text-anchor="middle">0.57</text><text x="259" y="773" font-family="Arial, sans-serif" font-size="9" fill="#526273" text-anchor="middle">SPA</text><text x="127" y="912" font-family="Arial, sans-serif" font-size="9" fill="#526273" text-anchor="end">SPA</text><rect x="135" y="882" width="48" height="48" fill="rgb(211,225,243)" stroke="#fff"/><text x="159" y="911" font-family="Arial, sans-serif" font-size="11" fill="#243447" text-anchor="middle">0.19</text><rect x="185" y="882" width="48" height="48" fill="rgb(212,225,243)" stroke="#fff"/><text x="209" y="911" font-family="Arial, sans-serif" font-size="11" fill="#243447" text-anchor="middle">0.19</text><rect x="235" y="882" width="48" height="48" fill="rgb(90,140,215)" stroke="#fff"/><text x="259" y="911" font-family="Arial, sans-serif" font-size="11" fill="#fff" text-anchor="middle">1.00</text><rect x="285" y="882" width="48" height="48" fill="rgb(196,215,240)" stroke="#fff"/><text x="309" y="911" font-family="Arial, sans-serif" font-size="11" fill="#243447" text-anchor="middle">0.29</text><text x="309" y="773" font-family="Arial, sans-serif" font-size="9" fill="#526273" text-anchor="middle">MuSiCal</text><text x="127" y="962" font-family="Arial, sans-serif" font-size="9" fill="#526273" text-anchor="end">MuSiCal</text><rect x="135" y="932" width="48" height="48" fill="rgb(168,195,233)" stroke="#fff"/><text x="159" y="961" font-family="Arial, sans-serif" font-size="11" fill="#243447" text-anchor="middle">0.48</text><rect x="185" y="932" width="48" height="48" fill="rgb(155,186,230)" stroke="#fff"/><text x="209" y="961" font-family="Arial, sans-serif" font-size="11" fill="#fff" text-anchor="middle">0.57</text><rect x="235" y="932" width="48" height="48" fill="rgb(196,215,240)" stroke="#fff"/><text x="259" y="961" font-family="Arial, sans-serif" font-size="11" fill="#243447" text-anchor="middle">0.29</text><rect x="285" y="932" width="48" height="48" fill="rgb(90,140,215)" stroke="#fff"/><text x="309" y="961" font-family="Arial, sans-serif" font-size="11" fill="#fff" text-anchor="middle">1.00</text><rect x="610" y="710" width="560" height="280" fill="#fbfcfd" stroke="#d8e1e7"/><text x="626" y="734" font-family="Arial, sans-serif" font-size="15" font-weight="700" fill="#172b3a" text-anchor="start">F. Signatures driving real-cohort disagreement</text><text x="626" y="752" font-family="Arial, sans-serif" font-size="10" font-weight="400" fill="#526273" text-anchor="start">Mean across-tool range in relative exposure across 38 samples</text><text x="682" y="789" font-family="Arial, sans-serif" font-size="10" font-weight="400" fill="#526273" text-anchor="end">SBS5</text><rect x="692" y="774" width="442" height="20" rx="2" fill="#2f6f8f"/><text x="1141" y="789" font-family="Arial, sans-serif" font-size="10" font-weight="400" fill="#243447" text-anchor="start">0.246</text><text x="682" y="821" font-family="Arial, sans-serif" font-size="10" font-weight="400" fill="#526273" text-anchor="end">SBS40</text><rect x="692" y="806" width="389.22578261099085" height="20" rx="2" fill="#2f6f8f"/><text x="1088.2257826109908" y="821" font-family="Arial, sans-serif" font-size="10" font-weight="400" fill="#243447" text-anchor="start">0.217</text><text x="682" y="853" font-family="Arial, sans-serif" font-size="10" font-weight="400" fill="#526273" text-anchor="end">SBS8</text><rect x="692" y="838" width="159.2541836034419" height="20" rx="2" fill="#2f6f8f"/><text x="858.2541836034419" y="853" font-family="Arial, sans-serif" font-size="10" font-weight="400" fill="#243447" text-anchor="start">0.089</text><text x="682" y="885" font-family="Arial, sans-serif" font-size="10" font-weight="400" fill="#526273" text-anchor="end">SBS4</text><rect x="692" y="870" width="128.18518714036847" height="20" rx="2" fill="#2f6f8f"/><text x="827.1851871403685" y="885" font-family="Arial, sans-serif" font-size="10" font-weight="400" fill="#243447" text-anchor="start">0.071</text><text x="682" y="917" font-family="Arial, sans-serif" font-size="10" font-weight="400" fill="#526273" text-anchor="end">SBS39</text><rect x="692" y="902" width="97.61695613155254" height="20" rx="2" fill="#2f6f8f"/><text x="796.6169561315526" y="917" font-family="Arial, sans-serif" font-size="10" font-weight="400" fill="#243447" text-anchor="start">0.054</text><text x="682" y="949" font-family="Arial, sans-serif" font-size="10" font-weight="400" fill="#526273" text-anchor="end">SBS18</text><rect x="692" y="934" width="97.4518291717257" height="20" rx="2" fill="#2f6f8f"/><text x="796.4518291717256" y="949" font-family="Arial, sans-serif" font-size="10" font-weight="400" fill="#243447" text-anchor="start">0.054</text><text x="30" y="1020" font-family="Arial" font-size="10" fill="#526273">Heatmap abbreviations: SPA, SigProfilerAssignment. Synthetic panels test accuracy; PCAWG panels test triangulation and do not establish biological truth.</text><text x="30" y="1040" font-family="Arial" font-size="10" fill="#526273">All tools use complete-catalog relative fractions; accuracy is evaluated before filtering, and active calls use a common 1% cutoff followed by renormalization.</text></svg>