<?xml version="1.0" encoding="UTF-8"?>
<svg xmlns="http://www.w3.org/2000/svg" width="960" height="540" viewBox="0 0 960 540" role="img" aria-labelledby="sdk-nmf-extraction-svg-title sdk-nmf-extraction-svg-desc">
  <title id="sdk-nmf-extraction-svg-title">Discovery extraction (NMF)</title>
  <desc id="sdk-nmf-extraction-svg-desc">Spectrum matrix separated into signature and exposure factors</desc>
  <defs>
    <linearGradient id="sdk-nmf-extraction-svg-bg" x1="0" y1="0" x2="1" y2="1">
      <stop offset="0%" stop-color="#fbfaff"/>
      <stop offset="58%" stop-color="#f2f0fb"/>
      <stop offset="100%" stop-color="#edf8f6"/>
    </linearGradient>
    <radialGradient id="sdk-nmf-extraction-svg-glow" cx="72%" cy="26%" r="70%">
      <stop offset="0%" stop-color="#168a8c" stop-opacity="0.28"/>
      <stop offset="100%" stop-color="#168a8c" stop-opacity="0"/>
    </radialGradient>
    <filter id="sdk-nmf-extraction-svg-shadow" x="-18%" y="-18%" width="136%" height="136%">
      <feDropShadow dx="0" dy="16" stdDeviation="20" flood-color="#10201b" flood-opacity="0.12"/>
    </filter>
    <marker id="sdk-nmf-extraction-svg-arrow" markerWidth="13" markerHeight="13" refX="10" refY="6.5" orient="auto">
      <path d="M 0 0 L 13 6.5 L 0 13 Z" fill="#7657b8"/>
    </marker>
  </defs>
  <rect width="960" height="540" fill="url(#sdk-nmf-extraction-svg-bg)"/>
  <rect width="960" height="540" fill="url(#sdk-nmf-extraction-svg-glow)"/>
  <line x1="80" y1="58" x2="80" y2="482" stroke="#7657b813" stroke-width="2" /><line x1="178" y1="58" x2="178" y2="482" stroke="#7657b813" stroke-width="2" /><line x1="276" y1="58" x2="276" y2="482" stroke="#7657b813" stroke-width="2" /><line x1="374" y1="58" x2="374" y2="482" stroke="#7657b813" stroke-width="2" /><line x1="472" y1="58" x2="472" y2="482" stroke="#7657b813" stroke-width="2" /><line x1="570" y1="58" x2="570" y2="482" stroke="#7657b813" stroke-width="2" /><line x1="668" y1="58" x2="668" y2="482" stroke="#7657b813" stroke-width="2" /><line x1="766" y1="58" x2="766" y2="482" stroke="#7657b813" stroke-width="2" /><line x1="864" y1="58" x2="864" y2="482" stroke="#7657b813" stroke-width="2" /><line x1="48" y1="96" x2="912" y2="96" stroke="#168a8c13" stroke-width="2" /><line x1="48" y1="184" x2="912" y2="184" stroke="#168a8c13" stroke-width="2" /><line x1="48" y1="272" x2="912" y2="272" stroke="#168a8c13" stroke-width="2" /><line x1="48" y1="360" x2="912" y2="360" stroke="#168a8c13" stroke-width="2" /><line x1="48" y1="448" x2="912" y2="448" stroke="#168a8c13" stroke-width="2" /><circle cx="824" cy="104" r="116" fill="#168a8c12" />
  <g ><rect x="76" y="146" width="236" height="248" rx="32" fill="#ffffff" stroke="#d8e2dc" stroke-width="2" filter="url(#sdk-nmf-extraction-svg-shadow)" /><rect x="120" y="196" width="21" height="21" rx="4" fill="#7657b8" opacity="0.72" /><rect x="145" y="196" width="21" height="21" rx="4" fill="#d59b2e" opacity="0.32" /><rect x="170" y="196" width="21" height="21" rx="4" fill="#4772b2" opacity="0.52" /><rect x="195" y="196" width="21" height="21" rx="4" fill="#168a8c" opacity="0.72" /><rect x="220" y="196" width="21" height="21" rx="4" fill="#7657b8" opacity="0.32" /><rect x="245" y="196" width="21" height="21" rx="4" fill="#d59b2e" opacity="0.52" /><rect x="120" y="221" width="21" height="21" rx="4" fill="#4772b2" opacity="0.62" /><rect x="145" y="221" width="21" height="21" rx="4" fill="#168a8c" opacity="0.32" /><rect x="170" y="221" width="21" height="21" rx="4" fill="#7657b8" opacity="0.62" /><rect x="195" y="221" width="21" height="21" rx="4" fill="#d59b2e" opacity="0.32" /><rect x="220" y="221" width="21" height="21" rx="4" fill="#4772b2" opacity="0.62" /><rect x="245" y="221" width="21" height="21" rx="4" fill="#168a8c" opacity="0.32" /><rect x="120" y="246" width="21" height="21" rx="4" fill="#7657b8" opacity="0.52" /><rect x="145" y="246" width="21" height="21" rx="4" fill="#d59b2e" opacity="0.32" /><rect x="170" y="246" width="21" height="21" rx="4" fill="#4772b2" opacity="0.72" /><rect x="195" y="246" width="21" height="21" rx="4" fill="#168a8c" opacity="0.52" /><rect x="220" y="246" width="21" height="21" rx="4" fill="#7657b8" opacity="0.32" /><rect x="245" y="246" width="21" height="21" rx="4" fill="#d59b2e" opacity="0.72" /><rect x="120" y="271" width="21" height="21" rx="4" fill="#4772b2" opacity="0.42" /><rect x="145" y="271" width="21" height="21" rx="4" fill="#168a8c" opacity="0.32" /><rect x="170" y="271" width="21" height="21" rx="4" fill="#7657b8" opacity="0.82" /><rect x="195" y="271" width="21" height="21" rx="4" fill="#d59b2e" opacity="0.72" /><rect x="220" y="271" width="21" height="21" rx="4" fill="#4772b2" opacity="0.62" /><rect x="245" y="271" width="21" height="21" rx="4" fill="#168a8c" opacity="0.52" /><rect x="120" y="296" width="21" height="21" rx="4" fill="#7657b8" opacity="0.32" /><rect x="145" y="296" width="21" height="21" rx="4" fill="#d59b2e" opacity="0.32" /><rect x="170" y="296" width="21" height="21" rx="4" fill="#4772b2" opacity="0.32" /><rect x="195" y="296" width="21" height="21" rx="4" fill="#168a8c" opacity="0.32" /><rect x="220" y="296" width="21" height="21" rx="4" fill="#7657b8" opacity="0.32" /><rect x="245" y="296" width="21" height="21" rx="4" fill="#d59b2e" opacity="0.32" /><rect x="120" y="321" width="21" height="21" rx="4" fill="#4772b2" opacity="0.82" /><rect x="145" y="321" width="21" height="21" rx="4" fill="#168a8c" opacity="0.32" /><rect x="170" y="321" width="21" height="21" rx="4" fill="#7657b8" opacity="0.42" /><rect x="195" y="321" width="21" height="21" rx="4" fill="#d59b2e" opacity="0.52" /><rect x="220" y="321" width="21" height="21" rx="4" fill="#4772b2" opacity="0.62" /><rect x="245" y="321" width="21" height="21" rx="4" fill="#168a8c" opacity="0.72" /></g><polygon points="374,160 478,270 374,380 328,270" fill="#7657b824" stroke="#7657b8" stroke-width="5" /><polygon points="478,270 580,168 626,270 580,372" fill="#168a8c22" stroke="#168a8c" stroke-width="5" /><path d="M 312 270 H 374 M 626 270 H 682" stroke="#405168" stroke-width="6" stroke-linecap="round" /><g ><rect x="682" y="126" width="104" height="288" rx="28" fill="#ffffff" stroke="#d8e2dc" stroke-width="2" filter="url(#sdk-nmf-extraction-svg-shadow)" /><rect x="716" y="309.6" width="2" height="50.400000000000006" rx="8" fill="#7657b8" /><rect x="728" y="248.4" width="2" height="111.6" rx="8" fill="#d59b2e" /><rect x="740" y="277.2" width="2" height="82.8" rx="8" fill="#7657b8" /><rect x="752" y="219.6" width="2" height="140.4" rx="8" fill="#d59b2e" /></g><g ><rect x="808" y="172" width="94" height="196" rx="28" fill="#ffffff" stroke="#d8e2dc" stroke-width="2" filter="url(#sdk-nmf-extraction-svg-shadow)" /><rect x="836" y="214" width="16" height="16" rx="4" fill="#168a8c" opacity="0.72" /><rect x="856" y="214" width="16" height="16" rx="4" fill="#168a8c" opacity="0.32" /><rect x="876" y="214" width="16" height="16" rx="4" fill="#168a8c" opacity="0.52" /><rect x="836" y="234" width="16" height="16" rx="4" fill="#d59b2e" opacity="0.62" /><rect x="856" y="234" width="16" height="16" rx="4" fill="#d59b2e" opacity="0.32" /><rect x="876" y="234" width="16" height="16" rx="4" fill="#d59b2e" opacity="0.62" /><rect x="836" y="254" width="16" height="16" rx="4" fill="#7657b8" opacity="0.52" /><rect x="856" y="254" width="16" height="16" rx="4" fill="#7657b8" opacity="0.32" /><rect x="876" y="254" width="16" height="16" rx="4" fill="#7657b8" opacity="0.72" /><rect x="836" y="274" width="16" height="16" rx="4" fill="#168a8c" opacity="0.42" /><rect x="856" y="274" width="16" height="16" rx="4" fill="#168a8c" opacity="0.32" /><rect x="876" y="274" width="16" height="16" rx="4" fill="#168a8c" opacity="0.82" /></g><polyline points="354,416 400,388 450,398 502,352 556,368 610,324" fill="none" stroke="#7657b8" stroke-width="5" stroke-linecap="round" stroke-linejoin="round" /><circle cx="354" cy="416" r="5" fill="#ffffff" stroke="#7657b8" stroke-width="3" /><circle cx="400" cy="388" r="5" fill="#ffffff" stroke="#7657b8" stroke-width="3" /><circle cx="450" cy="398" r="5" fill="#ffffff" stroke="#7657b8" stroke-width="3" /><circle cx="502" cy="352" r="5" fill="#ffffff" stroke="#7657b8" stroke-width="3" /><circle cx="556" cy="368" r="5" fill="#ffffff" stroke="#7657b8" stroke-width="3" /><circle cx="610" cy="324" r="5" fill="#ffffff" stroke="#7657b8" stroke-width="3" />
</svg>
