<?xml version="1.0" encoding="UTF-8"?>
<svg xmlns="http://www.w3.org/2000/svg" width="960" height="540" viewBox="0 0 960 540" role="img" aria-labelledby="sdk-multi-tool-comparison-svg-title sdk-multi-tool-comparison-svg-desc">
  <title id="sdk-multi-tool-comparison-svg-title">Multi-tool comparison</title>
  <desc id="sdk-multi-tool-comparison-svg-desc">Multiple fitting engines reconciled through concordance and disagreement review</desc>
  <defs>
    <linearGradient id="sdk-multi-tool-comparison-svg-bg" x1="0" y1="0" x2="1" y2="1">
      <stop offset="0%" stop-color="#fbfcf8"/>
      <stop offset="58%" stop-color="#eef4f3"/>
      <stop offset="100%" stop-color="#f4f2fb"/>
    </linearGradient>
    <radialGradient id="sdk-multi-tool-comparison-svg-glow" cx="72%" cy="26%" r="70%">
      <stop offset="0%" stop-color="#168a8c" stop-opacity="0.28"/>
      <stop offset="100%" stop-color="#168a8c" stop-opacity="0"/>
    </radialGradient>
    <filter id="sdk-multi-tool-comparison-svg-shadow" x="-18%" y="-18%" width="136%" height="136%">
      <feDropShadow dx="0" dy="16" stdDeviation="20" flood-color="#10201b" flood-opacity="0.12"/>
    </filter>
    <marker id="sdk-multi-tool-comparison-svg-arrow" markerWidth="13" markerHeight="13" refX="10" refY="6.5" orient="auto">
      <path d="M 0 0 L 13 6.5 L 0 13 Z" fill="#405168"/>
    </marker>
  </defs>
  <rect width="960" height="540" fill="url(#sdk-multi-tool-comparison-svg-bg)"/>
  <rect width="960" height="540" fill="url(#sdk-multi-tool-comparison-svg-glow)"/>
  <ellipse cx="480" cy="270" rx="390" ry="170" fill="none" stroke="#40516822" stroke-width="28" /><ellipse cx="480" cy="270" rx="310" ry="112" fill="none" stroke="#168a8c20" stroke-width="18" /><circle cx="126" cy="102" r="118" fill="#40516812" /><circle cx="840" cy="438" r="170" fill="#168a8c14" />
  <g ><rect x="104" y="164" width="122" height="70" rx="24" fill="#ffffff" stroke="#d8e2dc" stroke-width="2" filter="url(#sdk-multi-tool-comparison-svg-shadow)" /><circle cx="138" cy="199" r="18" fill="#168a8c" /><rect x="170" y="189" width="36" height="10" rx="5" fill="#dfeae4" /><rect x="170" y="207" width="28" height="8" rx="4" fill="#dfeae4" /></g><g ><rect x="104" y="254" width="122" height="70" rx="24" fill="#ffffff" stroke="#d8e2dc" stroke-width="2" filter="url(#sdk-multi-tool-comparison-svg-shadow)" /><circle cx="138" cy="289" r="18" fill="#4772b2" /><rect x="170" y="279" width="36" height="10" rx="5" fill="#dfeae4" /><rect x="170" y="297" width="28" height="8" rx="4" fill="#dfeae4" /></g><g ><rect x="104" y="344" width="122" height="70" rx="24" fill="#ffffff" stroke="#d8e2dc" stroke-width="2" filter="url(#sdk-multi-tool-comparison-svg-shadow)" /><circle cx="138" cy="379" r="18" fill="#d59b2e" /><rect x="170" y="369" width="36" height="10" rx="5" fill="#dfeae4" /><rect x="170" y="387" width="28" height="8" rx="4" fill="#dfeae4" /></g><path d="M 248 198 C 338 198 356 270 436 270" stroke="#168a8c" stroke-width="8" fill="none" stroke-linecap="round" /><path d="M 248 288 C 338 288 356 270 436 270" stroke="#4772b2" stroke-width="8" fill="none" stroke-linecap="round" /><path d="M 248 378 C 338 378 356 270 436 270" stroke="#d59b2e" stroke-width="8" fill="none" stroke-linecap="round" /><g ><rect x="438" y="138" width="244" height="264" rx="34" fill="#ffffff" stroke="#d8e2dc" stroke-width="2" filter="url(#sdk-multi-tool-comparison-svg-shadow)" /><rect x="486" y="192" width="26" height="26" rx="4" fill="#168a8c" opacity="0.72" /><rect x="516" y="192" width="26" height="26" rx="4" fill="#c86f80" opacity="0.32" /><rect x="546" y="192" width="26" height="26" rx="4" fill="#4772b2" opacity="0.52" /><rect x="576" y="192" width="26" height="26" rx="4" fill="#7657b8" opacity="0.72" /><rect x="606" y="192" width="26" height="26" rx="4" fill="#d59b2e" opacity="0.32" /><rect x="486" y="222" width="26" height="26" rx="4" fill="#d59b2e" opacity="0.62" /><rect x="516" y="222" width="26" height="26" rx="4" fill="#168a8c" opacity="0.32" /><rect x="546" y="222" width="26" height="26" rx="4" fill="#c86f80" opacity="0.62" /><rect x="576" y="222" width="26" height="26" rx="4" fill="#4772b2" opacity="0.32" /><rect x="606" y="222" width="26" height="26" rx="4" fill="#7657b8" opacity="0.62" /><rect x="486" y="252" width="26" height="26" rx="4" fill="#7657b8" opacity="0.52" /><rect x="516" y="252" width="26" height="26" rx="4" fill="#d59b2e" opacity="0.32" /><rect x="546" y="252" width="26" height="26" rx="4" fill="#168a8c" opacity="0.72" /><rect x="576" y="252" width="26" height="26" rx="4" fill="#c86f80" opacity="0.52" /><rect x="606" y="252" width="26" height="26" rx="4" fill="#4772b2" opacity="0.32" /><rect x="486" y="282" width="26" height="26" rx="4" fill="#4772b2" opacity="0.42" /><rect x="516" y="282" width="26" height="26" rx="4" fill="#7657b8" opacity="0.32" /><rect x="546" y="282" width="26" height="26" rx="4" fill="#d59b2e" opacity="0.82" /><rect x="576" y="282" width="26" height="26" rx="4" fill="#168a8c" opacity="0.72" /><rect x="606" y="282" width="26" height="26" rx="4" fill="#c86f80" opacity="0.62" /><rect x="486" y="312" width="26" height="26" rx="4" fill="#c86f80" opacity="0.32" /><rect x="516" y="312" width="26" height="26" rx="4" fill="#4772b2" opacity="0.32" /><rect x="546" y="312" width="26" height="26" rx="4" fill="#7657b8" opacity="0.32" /><rect x="576" y="312" width="26" height="26" rx="4" fill="#d59b2e" opacity="0.32" /><rect x="606" y="312" width="26" height="26" rx="4" fill="#168a8c" opacity="0.32" /></g><path d="M 690 270 C 746 224 798 226 844 270" stroke="#405168" stroke-width="7" fill="none" stroke-linecap="round" marker-end="url(#sdk-multi-tool-comparison-svg-arrow)" /><g ><rect x="760" y="310" width="120" height="86" rx="26" fill="#ffffff" stroke="#d8e2dc" stroke-width="2" /><circle cx="804" cy="352" r="12" fill="#c86f80" /><circle cx="842" cy="360" r="10" fill="#d59b2e" /><circle cx="828" cy="332" r="8" fill="#168a8c" /></g><circle cx="800" cy="216" r="50" fill="#40516816" stroke="#405168" stroke-width="8" /><line x1="834" y1="250" x2="864" y2="280" stroke="#405168" stroke-width="10" stroke-linecap="round" />
</svg>
