<?xml version="1.0" encoding="UTF-8"?>
<svg xmlns="http://www.w3.org/2000/svg" width="960" height="540" viewBox="0 0 960 540" role="img" aria-labelledby="sdk-maf-fit-report-svg-title sdk-maf-fit-report-svg-desc">
  <title id="sdk-maf-fit-report-svg-title">MAF to COSMIC profiles</title>
  <desc id="sdk-maf-fit-report-svg-desc">Variant rows mapped into SBS, DBS, and indel profile channels</desc>
  <defs>
    <linearGradient id="sdk-maf-fit-report-svg-bg" x1="0" y1="0" x2="1" y2="1">
      <stop offset="0%" stop-color="#fffaf7"/>
      <stop offset="58%" stop-color="#f9f2fb"/>
      <stop offset="100%" stop-color="#edf8f6"/>
    </linearGradient>
    <radialGradient id="sdk-maf-fit-report-svg-glow" cx="72%" cy="26%" r="70%">
      <stop offset="0%" stop-color="#7657b8" stop-opacity="0.28"/>
      <stop offset="100%" stop-color="#7657b8" stop-opacity="0"/>
    </radialGradient>
    <filter id="sdk-maf-fit-report-svg-shadow" x="-18%" y="-18%" width="136%" height="136%">
      <feDropShadow dx="0" dy="16" stdDeviation="20" flood-color="#10201b" flood-opacity="0.12"/>
    </filter>
    <marker id="sdk-maf-fit-report-svg-arrow" markerWidth="13" markerHeight="13" refX="10" refY="6.5" orient="auto">
      <path d="M 0 0 L 13 6.5 L 0 13 Z" fill="#dc7c3f"/>
    </marker>
  </defs>
  <rect width="960" height="540" fill="url(#sdk-maf-fit-report-svg-bg)"/>
  <rect width="960" height="540" fill="url(#sdk-maf-fit-report-svg-glow)"/>
  <line x1="80" y1="58" x2="80" y2="482" stroke="#dc7c3f13" stroke-width="2" /><line x1="178" y1="58" x2="178" y2="482" stroke="#dc7c3f13" stroke-width="2" /><line x1="276" y1="58" x2="276" y2="482" stroke="#dc7c3f13" stroke-width="2" /><line x1="374" y1="58" x2="374" y2="482" stroke="#dc7c3f13" stroke-width="2" /><line x1="472" y1="58" x2="472" y2="482" stroke="#dc7c3f13" stroke-width="2" /><line x1="570" y1="58" x2="570" y2="482" stroke="#dc7c3f13" stroke-width="2" /><line x1="668" y1="58" x2="668" y2="482" stroke="#dc7c3f13" stroke-width="2" /><line x1="766" y1="58" x2="766" y2="482" stroke="#dc7c3f13" stroke-width="2" /><line x1="864" y1="58" x2="864" y2="482" stroke="#dc7c3f13" stroke-width="2" /><line x1="48" y1="96" x2="912" y2="96" stroke="#7657b813" stroke-width="2" /><line x1="48" y1="184" x2="912" y2="184" stroke="#7657b813" stroke-width="2" /><line x1="48" y1="272" x2="912" y2="272" stroke="#7657b813" stroke-width="2" /><line x1="48" y1="360" x2="912" y2="360" stroke="#7657b813" stroke-width="2" /><line x1="48" y1="448" x2="912" y2="448" stroke="#7657b813" stroke-width="2" /><circle cx="824" cy="104" r="116" fill="#7657b812" />
  <g ><rect x="82" y="116" width="190" height="300" rx="32" fill="#ffffff" stroke="#d8e2dc" stroke-width="2" filter="url(#sdk-maf-fit-report-svg-shadow)" /><polyline points="168,156 188.08597054518663,178 195.98806088516216,200 186.91296905543223,222 166.36552398402776,244 146.809530131378,266 140.10739095259646,288 150.324534139575,310 171.26337773581383,332 190.2227001877763,354 195.7020309054547,376" fill="none" stroke="#dc7c3f" stroke-width="5" stroke-linecap="round" stroke-linejoin="round" /><circle cx="168" cy="156" r="4" fill="#ffffff" stroke="#dc7c3f" stroke-width="2" /><circle cx="188.08597054518663" cy="178" r="4" fill="#ffffff" stroke="#dc7c3f" stroke-width="2" /><circle cx="195.98806088516216" cy="200" r="4" fill="#ffffff" stroke="#dc7c3f" stroke-width="2" /><circle cx="186.91296905543223" cy="222" r="4" fill="#ffffff" stroke="#dc7c3f" stroke-width="2" /><circle cx="166.36552398402776" cy="244" r="4" fill="#ffffff" stroke="#dc7c3f" stroke-width="2" /><circle cx="146.809530131378" cy="266" r="4" fill="#ffffff" stroke="#dc7c3f" stroke-width="2" /><circle cx="140.10739095259646" cy="288" r="4" fill="#ffffff" stroke="#dc7c3f" stroke-width="2" /><circle cx="150.324534139575" cy="310" r="4" fill="#ffffff" stroke="#dc7c3f" stroke-width="2" /><circle cx="171.26337773581383" cy="332" r="4" fill="#ffffff" stroke="#dc7c3f" stroke-width="2" /><circle cx="190.2227001877763" cy="354" r="4" fill="#ffffff" stroke="#dc7c3f" stroke-width="2" /><circle cx="195.7020309054547" cy="376" r="4" fill="#ffffff" stroke="#dc7c3f" stroke-width="2" /><polyline points="168,156 147.91402945481337,178 140.01193911483784,200 149.08703094456777,222 169.63447601597224,244 189.190469868622,266 195.89260904740354,288 185.675465860425,310 164.73662226418617,332 145.7772998122237,354 140.2979690945453,376" fill="none" stroke="#7657b8" stroke-width="5" stroke-linecap="round" stroke-linejoin="round" /><circle cx="168" cy="156" r="4" fill="#ffffff" stroke="#7657b8" stroke-width="2" /><circle cx="147.91402945481337" cy="178" r="4" fill="#ffffff" stroke="#7657b8" stroke-width="2" /><circle cx="140.01193911483784" cy="200" r="4" fill="#ffffff" stroke="#7657b8" stroke-width="2" /><circle cx="149.08703094456777" cy="222" r="4" fill="#ffffff" stroke="#7657b8" stroke-width="2" /><circle cx="169.63447601597224" cy="244" r="4" fill="#ffffff" stroke="#7657b8" stroke-width="2" /><circle cx="189.190469868622" cy="266" r="4" fill="#ffffff" stroke="#7657b8" stroke-width="2" /><circle cx="195.89260904740354" cy="288" r="4" fill="#ffffff" stroke="#7657b8" stroke-width="2" /><circle cx="185.675465860425" cy="310" r="4" fill="#ffffff" stroke="#7657b8" stroke-width="2" /><circle cx="164.73662226418617" cy="332" r="4" fill="#ffffff" stroke="#7657b8" stroke-width="2" /><circle cx="145.7772998122237" cy="354" r="4" fill="#ffffff" stroke="#7657b8" stroke-width="2" /><circle cx="140.2979690945453" cy="376" r="4" fill="#ffffff" stroke="#7657b8" stroke-width="2" /><line x1="168" y1="156" x2="168" y2="156" stroke="#7657b8" stroke-width="4" opacity="0.55" /><line x1="188.08597054518663" y1="178" x2="147.91402945481337" y2="178" stroke="#dc7c3f" stroke-width="4" opacity="0.55" /><line x1="195.98806088516216" y1="200" x2="140.01193911483784" y2="200" stroke="#7657b8" stroke-width="4" opacity="0.55" /><line x1="186.91296905543223" y1="222" x2="149.08703094456777" y2="222" stroke="#dc7c3f" stroke-width="4" opacity="0.55" /><line x1="166.36552398402776" y1="244" x2="169.63447601597224" y2="244" stroke="#7657b8" stroke-width="4" opacity="0.55" /><line x1="146.809530131378" y1="266" x2="189.190469868622" y2="266" stroke="#dc7c3f" stroke-width="4" opacity="0.55" /><line x1="140.10739095259646" y1="288" x2="195.89260904740354" y2="288" stroke="#7657b8" stroke-width="4" opacity="0.55" /><line x1="150.324534139575" y1="310" x2="185.675465860425" y2="310" stroke="#dc7c3f" stroke-width="4" opacity="0.55" /><line x1="171.26337773581383" y1="332" x2="164.73662226418617" y2="332" stroke="#7657b8" stroke-width="4" opacity="0.55" /><line x1="190.2227001877763" y1="354" x2="145.7772998122237" y2="354" stroke="#dc7c3f" stroke-width="4" opacity="0.55" /><line x1="195.7020309054547" y1="376" x2="140.2979690945453" y2="376" stroke="#7657b8" stroke-width="4" opacity="0.55" /><circle cx="180" cy="210" r="13" fill="#c94d5d" /><circle cx="124" cy="290" r="11" fill="#d59b2e" /><circle cx="188" cy="340" r="12" fill="#168a8c" /></g><path d="M 314 170 L 474 270 L 314 370 Z" fill="#dc7c3f28" stroke="#dc7c3f" stroke-width="5" /><line x1="324" y1="188" x2="438" y2="270" stroke="#dc7c3f" stroke-width="4" opacity="0.55" /><line x1="324" y1="228" x2="438" y2="270" stroke="#7657b8" stroke-width="4" opacity="0.55" /><line x1="324" y1="268" x2="438" y2="270" stroke="#168a8c" stroke-width="4" opacity="0.55" /><line x1="324" y1="308" x2="438" y2="270" stroke="#d59b2e" stroke-width="4" opacity="0.55" /><line x1="324" y1="348" x2="438" y2="270" stroke="#c86f80" stroke-width="4" opacity="0.55" /><g ><rect x="532" y="120" width="328" height="296" rx="30" fill="#ffffff" stroke="#d8e2dc" stroke-width="2" filter="url(#sdk-maf-fit-report-svg-shadow)" /><rect x="574" y="168" width="24" height="24" rx="5" fill="#dc7c3f" opacity="0.72" /><rect x="602" y="168" width="24" height="24" rx="5" fill="#d59b2e" opacity="0.32" /><rect x="630" y="168" width="24" height="24" rx="5" fill="#7657b8" opacity="0.52" /><rect x="658" y="168" width="24" height="24" rx="5" fill="#4772b2" opacity="0.72" /><rect x="686" y="168" width="24" height="24" rx="5" fill="#168a8c" opacity="0.32" /><rect x="714" y="168" width="24" height="24" rx="5" fill="#dc7c3f" opacity="0.52" /><rect x="742" y="168" width="24" height="24" rx="5" fill="#d59b2e" opacity="0.72" /><rect x="770" y="168" width="24" height="24" rx="5" fill="#7657b8" opacity="0.32" /><rect x="574" y="196" width="24" height="24" rx="5" fill="#168a8c" opacity="0.62" /><rect x="602" y="196" width="24" height="24" rx="5" fill="#dc7c3f" opacity="0.32" /><rect x="630" y="196" width="24" height="24" rx="5" fill="#d59b2e" opacity="0.62" /><rect x="658" y="196" width="24" height="24" rx="5" fill="#7657b8" opacity="0.32" /><rect x="686" y="196" width="24" height="24" rx="5" fill="#4772b2" opacity="0.62" /><rect x="714" y="196" width="24" height="24" rx="5" fill="#168a8c" opacity="0.32" /><rect x="742" y="196" width="24" height="24" rx="5" fill="#dc7c3f" opacity="0.62" /><rect x="770" y="196" width="24" height="24" rx="5" fill="#d59b2e" opacity="0.32" /><rect x="574" y="224" width="24" height="24" rx="5" fill="#4772b2" opacity="0.52" /><rect x="602" y="224" width="24" height="24" rx="5" fill="#168a8c" opacity="0.32" /><rect x="630" y="224" width="24" height="24" rx="5" fill="#dc7c3f" opacity="0.72" /><rect x="658" y="224" width="24" height="24" rx="5" fill="#d59b2e" opacity="0.52" /><rect x="686" y="224" width="24" height="24" rx="5" fill="#7657b8" opacity="0.32" /><rect x="714" y="224" width="24" height="24" rx="5" fill="#4772b2" opacity="0.72" /><rect x="742" y="224" width="24" height="24" rx="5" fill="#168a8c" opacity="0.52" /><rect x="770" y="224" width="24" height="24" rx="5" fill="#dc7c3f" opacity="0.32" /><rect x="574" y="252" width="24" height="24" rx="5" fill="#7657b8" opacity="0.42" /><rect x="602" y="252" width="24" height="24" rx="5" fill="#4772b2" opacity="0.32" /><rect x="630" y="252" width="24" height="24" rx="5" fill="#168a8c" opacity="0.82" /><rect x="658" y="252" width="24" height="24" rx="5" fill="#dc7c3f" opacity="0.72" /><rect x="686" y="252" width="24" height="24" rx="5" fill="#d59b2e" opacity="0.62" /><rect x="714" y="252" width="24" height="24" rx="5" fill="#7657b8" opacity="0.52" /><rect x="742" y="252" width="24" height="24" rx="5" fill="#4772b2" opacity="0.42" /><rect x="770" y="252" width="24" height="24" rx="5" fill="#168a8c" opacity="0.32" /><rect x="574" y="280" width="24" height="24" rx="5" fill="#d59b2e" opacity="0.32" /><rect x="602" y="280" width="24" height="24" rx="5" fill="#7657b8" opacity="0.32" /><rect x="630" y="280" width="24" height="24" rx="5" fill="#4772b2" opacity="0.32" /><rect x="658" y="280" width="24" height="24" rx="5" fill="#168a8c" opacity="0.32" /><rect x="686" y="280" width="24" height="24" rx="5" fill="#dc7c3f" opacity="0.32" /><rect x="714" y="280" width="24" height="24" rx="5" fill="#d59b2e" opacity="0.32" /><rect x="742" y="280" width="24" height="24" rx="5" fill="#7657b8" opacity="0.32" /><rect x="770" y="280" width="24" height="24" rx="5" fill="#4772b2" opacity="0.32" /><rect x="574" y="308" width="24" height="24" rx="5" fill="#dc7c3f" opacity="0.82" /><rect x="602" y="308" width="24" height="24" rx="5" fill="#d59b2e" opacity="0.32" /><rect x="630" y="308" width="24" height="24" rx="5" fill="#7657b8" opacity="0.42" /><rect x="658" y="308" width="24" height="24" rx="5" fill="#4772b2" opacity="0.52" /><rect x="686" y="308" width="24" height="24" rx="5" fill="#168a8c" opacity="0.62" /><rect x="714" y="308" width="24" height="24" rx="5" fill="#dc7c3f" opacity="0.72" /><rect x="742" y="308" width="24" height="24" rx="5" fill="#d59b2e" opacity="0.82" /><rect x="770" y="308" width="24" height="24" rx="5" fill="#7657b8" opacity="0.32" /><rect x="592" y="383.44" width="21.125" height="16.56" rx="8" fill="#dc7c3f" /><rect x="620.125" y="366.88" width="21.125" height="33.12" rx="8" fill="#7657b8" /><rect x="648.25" y="380.68" width="21.125" height="19.32" rx="8" fill="#168a8c" /><rect x="676.375" y="373.32" width="21.125" height="26.68" rx="8" fill="#d59b2e" /><rect x="704.5" y="360.44" width="21.125" height="39.56" rx="8" fill="#dc7c3f" /><rect x="732.625" y="376.54" width="21.125" height="23.46" rx="8" fill="#7657b8" /><rect x="760.75" y="369.64" width="21.125" height="30.360000000000003" rx="8" fill="#168a8c" /><rect x="788.875" y="385.28" width="21.125" height="14.72" rx="8" fill="#d59b2e" /></g>
</svg>
