<?xml version="1.0" encoding="UTF-8"?>
<svg xmlns="http://www.w3.org/2000/svg" width="960" height="540" viewBox="0 0 960 540" role="img" aria-labelledby="sdk-cohort-panel-workflow-svg-title sdk-cohort-panel-workflow-svg-desc">
  <title id="sdk-cohort-panel-workflow-svg-title">Cohort and panel workflow</title>
  <desc id="sdk-cohort-panel-workflow-svg-desc">Cohort groups mapped through restricted panel coverage and support</desc>
  <defs>
    <linearGradient id="sdk-cohort-panel-workflow-svg-bg" x1="0" y1="0" x2="1" y2="1">
      <stop offset="0%" stop-color="#fbfcf8"/>
      <stop offset="58%" stop-color="#f0f8f1"/>
      <stop offset="100%" stop-color="#eef3ff"/>
    </linearGradient>
    <radialGradient id="sdk-cohort-panel-workflow-svg-glow" cx="72%" cy="26%" r="70%">
      <stop offset="0%" stop-color="#4772b2" stop-opacity="0.28"/>
      <stop offset="100%" stop-color="#4772b2" stop-opacity="0"/>
    </radialGradient>
    <filter id="sdk-cohort-panel-workflow-svg-shadow" x="-18%" y="-18%" width="136%" height="136%">
      <feDropShadow dx="0" dy="16" stdDeviation="20" flood-color="#10201b" flood-opacity="0.12"/>
    </filter>
    <marker id="sdk-cohort-panel-workflow-svg-arrow" markerWidth="13" markerHeight="13" refX="10" refY="6.5" orient="auto">
      <path d="M 0 0 L 13 6.5 L 0 13 Z" fill="#2f7d55"/>
    </marker>
  </defs>
  <rect width="960" height="540" fill="url(#sdk-cohort-panel-workflow-svg-bg)"/>
  <rect width="960" height="540" fill="url(#sdk-cohort-panel-workflow-svg-glow)"/>
  <ellipse cx="480" cy="270" rx="390" ry="170" fill="none" stroke="#2f7d5522" stroke-width="28" /><ellipse cx="480" cy="270" rx="310" ry="112" fill="none" stroke="#4772b220" stroke-width="18" /><circle cx="126" cy="102" r="118" fill="#2f7d5512" /><circle cx="840" cy="438" r="170" fill="#4772b214" />
  <circle cx="258" cy="268" r="12" fill="#2f7d55" opacity="0.9" /><circle cx="234.86401628086725" cy="285.78504745293475" r="9" fill="#4772b2" opacity="0.9" /><circle cx="225.83431104218687" cy="301.42495570370005" r="9" fill="#d59b2e" opacity="0.9" /><circle cx="222" cy="330.3538290724796" r="9" fill="#168a8c" opacity="0.9" /><circle cx="195.02970523868038" cy="319.2100031566348" r="12" fill="#2f7d55" opacity="0.9" /><circle cx="176.97029476131962" cy="319.2100031566348" r="9" fill="#4772b2" opacity="0.9" /><circle cx="150" cy="330.3538290724796" r="9" fill="#d59b2e" opacity="0.9" /><circle cx="146.16568895781313" cy="301.42495570370005" r="9" fill="#168a8c" opacity="0.9" /><circle cx="137.13598371913275" cy="285.7850474529348" r="12" fill="#2f7d55" opacity="0.9" /><circle cx="114" cy="268" r="9" fill="#4772b2" opacity="0.9" /><circle cx="137.13598371913275" cy="250.21495254706522" r="9" fill="#d59b2e" opacity="0.9" /><circle cx="146.16568895781313" cy="234.57504429629998" r="9" fill="#168a8c" opacity="0.9" /><circle cx="149.99999999999997" cy="205.64617092752042" r="12" fill="#2f7d55" opacity="0.9" /><circle cx="176.97029476131962" cy="216.78999684336517" r="9" fill="#4772b2" opacity="0.9" /><circle cx="195.02970523868035" cy="216.78999684336517" r="9" fill="#d59b2e" opacity="0.9" /><circle cx="221.99999999999994" cy="205.6461709275204" r="9" fill="#168a8c" opacity="0.9" /><circle cx="225.83431104218684" cy="234.57504429629995" r="12" fill="#2f7d55" opacity="0.9" /><circle cx="234.86401628086725" cy="250.21495254706522" r="9" fill="#4772b2" opacity="0.9" /><circle cx="186" cy="268" r="112" fill="none" stroke="#2f7d5533" stroke-width="12" /><path d="M 316 270 C 392 208 440 208 508 270" fill="none" stroke="#2f7d55" stroke-width="7" stroke-linecap="round" marker-end="url(#sdk-cohort-panel-workflow-svg-arrow)" /><g ><rect x="504" y="126" width="224" height="288" rx="34" fill="#ffffff" stroke="#d8e2dc" stroke-width="2" filter="url(#sdk-cohort-panel-workflow-svg-shadow)" /><rect x="552" y="170" width="128" height="198" rx="22" fill="#4772b216" stroke="#4772b2" stroke-width="4" /><rect x="570" y="194" width="21" height="21" rx="4" fill="#2f7d55" opacity="0.72" /><rect x="595" y="194" width="21" height="21" rx="4" fill="#168a8c" opacity="0.32" /><rect x="620" y="194" width="21" height="21" rx="4" fill="#d59b2e" opacity="0.52" /><rect x="645" y="194" width="21" height="21" rx="4" fill="#4772b2" opacity="0.72" /><rect x="570" y="219" width="21" height="21" rx="4" fill="#d59b2e" opacity="0.62" /><rect x="595" y="219" width="21" height="21" rx="4" fill="#4772b2" opacity="0.32" /><rect x="620" y="219" width="21" height="21" rx="4" fill="#2f7d55" opacity="0.62" /><rect x="645" y="219" width="21" height="21" rx="4" fill="#168a8c" opacity="0.32" /><rect x="570" y="244" width="21" height="21" rx="4" fill="#2f7d55" opacity="0.52" /><rect x="595" y="244" width="21" height="21" rx="4" fill="#168a8c" opacity="0.32" /><rect x="620" y="244" width="21" height="21" rx="4" fill="#d59b2e" opacity="0.72" /><rect x="645" y="244" width="21" height="21" rx="4" fill="#4772b2" opacity="0.52" /><rect x="570" y="269" width="21" height="21" rx="4" fill="#d59b2e" opacity="0.42" /><rect x="595" y="269" width="21" height="21" rx="4" fill="#4772b2" opacity="0.32" /><rect x="620" y="269" width="21" height="21" rx="4" fill="#2f7d55" opacity="0.82" /><rect x="645" y="269" width="21" height="21" rx="4" fill="#168a8c" opacity="0.72" /><rect x="570" y="294" width="21" height="21" rx="4" fill="#2f7d55" opacity="0.32" /><rect x="595" y="294" width="21" height="21" rx="4" fill="#168a8c" opacity="0.32" /><rect x="620" y="294" width="21" height="21" rx="4" fill="#d59b2e" opacity="0.32" /><rect x="645" y="294" width="21" height="21" rx="4" fill="#4772b2" opacity="0.32" /><rect x="570" y="319" width="21" height="21" rx="4" fill="#d59b2e" opacity="0.82" /><rect x="595" y="319" width="21" height="21" rx="4" fill="#4772b2" opacity="0.32" /><rect x="620" y="319" width="21" height="21" rx="4" fill="#2f7d55" opacity="0.42" /><rect x="645" y="319" width="21" height="21" rx="4" fill="#168a8c" opacity="0.52" /><path d="M 542 246 H 690 M 542 294 H 690" stroke="#10201b" stroke-width="5" opacity="0.28" /></g><g ><rect x="768" y="182" width="118" height="176" rx="30" fill="#ffffff" stroke="#d8e2dc" stroke-width="2" filter="url(#sdk-cohort-panel-workflow-svg-shadow)" /><circle cx="827" cy="270" r="48" fill="#2f7d5518" stroke="#2f7d55" stroke-width="8" /><path d="M 827 222 A 48 48 0 0 1 873 285" fill="none" stroke="#d59b2e" stroke-width="10" stroke-linecap="round" /><circle cx="827" cy="270" r="26" fill="#eef8f1" stroke="#2f7d55" stroke-width="8" /><path d="M 815.56 270 L 823.88 278.32 L 839.48 260.64" fill="none" stroke="#2f7d55" stroke-width="9" stroke-linecap="round" stroke-linejoin="round" /></g>
</svg>
