<?xml version="1.0" encoding="UTF-8"?>
<svg xmlns="http://www.w3.org/2000/svg" width="960" height="540" viewBox="0 0 960 540" role="img" aria-labelledby="sdk-panel-evidence-svg-title sdk-panel-evidence-svg-desc">
  <title id="sdk-panel-evidence-svg-title">Panel/WES evidence review</title>
  <desc id="sdk-panel-evidence-svg-desc">Assay coverage, support tiers, and evidence trajectory</desc>
  <defs>
    <linearGradient id="sdk-panel-evidence-svg-bg" x1="0" y1="0" x2="1" y2="1">
      <stop offset="0%" stop-color="#f9fcfb"/>
      <stop offset="58%" stop-color="#edf8f6"/>
      <stop offset="100%" stop-color="#fff7df"/>
    </linearGradient>
    <radialGradient id="sdk-panel-evidence-svg-glow" cx="72%" cy="26%" r="70%">
      <stop offset="0%" stop-color="#d59b2e" stop-opacity="0.28"/>
      <stop offset="100%" stop-color="#d59b2e" stop-opacity="0"/>
    </radialGradient>
    <filter id="sdk-panel-evidence-svg-shadow" x="-18%" y="-18%" width="136%" height="136%">
      <feDropShadow dx="0" dy="16" stdDeviation="20" flood-color="#10201b" flood-opacity="0.12"/>
    </filter>
    <marker id="sdk-panel-evidence-svg-arrow" markerWidth="13" markerHeight="13" refX="10" refY="6.5" orient="auto">
      <path d="M 0 0 L 13 6.5 L 0 13 Z" fill="#2e9fb3"/>
    </marker>
  </defs>
  <rect width="960" height="540" fill="url(#sdk-panel-evidence-svg-bg)"/>
  <rect width="960" height="540" fill="url(#sdk-panel-evidence-svg-glow)"/>
  <path d="M 0 390 C 150 316 276 448 424 372 C 548 308 698 328 960 228 L 960 540 L 0 540 Z" fill="#2e9fb312" /><circle cx="132" cy="94" r="104" fill="#d59b2e12" /><circle cx="850" cy="448" r="146" fill="#2e9fb312" />
  <g ><rect x="78" y="112" width="314" height="304" rx="34" fill="#ffffff" stroke="#d8e2dc" stroke-width="2" filter="url(#sdk-panel-evidence-svg-shadow)" /><circle cx="235" cy="264" r="106" fill="#2e9fb310" stroke="#2e9fb328" stroke-width="18" /><circle cx="235" cy="264" r="68" fill="none" stroke="#d59b2e35" stroke-width="14" /><circle cx="235" cy="264" r="30" fill="#2e9fb3" /><line x1="235" y1="158" x2="235" y2="370" stroke="#2e9fb3" stroke-width="4" opacity="0.5" /><line x1="129" y1="264" x2="341" y2="264" stroke="#2e9fb3" stroke-width="4" opacity="0.5" /><polyline points="154,314 190,260 234,282 276,212 320,244" fill="none" stroke="#d59b2e" stroke-width="5" stroke-linecap="round" stroke-linejoin="round" /><circle cx="154" cy="314" r="6" fill="#ffffff" stroke="#d59b2e" stroke-width="3" /><circle cx="190" cy="260" r="6" fill="#ffffff" stroke="#d59b2e" stroke-width="3" /><circle cx="234" cy="282" r="6" fill="#ffffff" stroke="#d59b2e" stroke-width="3" /><circle cx="276" cy="212" r="6" fill="#ffffff" stroke="#d59b2e" stroke-width="3" /><circle cx="320" cy="244" r="6" fill="#ffffff" stroke="#d59b2e" stroke-width="3" /></g><g ><rect x="448" y="154" width="158" height="230" rx="30" fill="#ffffff" stroke="#d8e2dc" stroke-width="2" filter="url(#sdk-panel-evidence-svg-shadow)" /><circle cx="512" cy="212" r="18" fill="#2f7d55" /><circle cx="512" cy="270" r="18" fill="#d59b2e" /><circle cx="512" cy="328" r="18" fill="#c86f80" /><rect x="548" y="203" width="34" height="18" rx="9" fill="#dfeae4" /><rect x="548" y="261" width="48" height="18" rx="9" fill="#dfeae4" /><rect x="548" y="319" width="28" height="18" rx="9" fill="#dfeae4" /></g><g ><rect x="660" y="166" width="218" height="206" rx="32" fill="#ffffff" stroke="#d8e2dc" stroke-width="2" filter="url(#sdk-panel-evidence-svg-shadow)" /><rect x="704" y="206" width="22" height="22" rx="4" fill="#2e9fb3" opacity="0.72" /><rect x="730" y="206" width="22" height="22" rx="4" fill="#d59b2e" opacity="0.32" /><rect x="756" y="206" width="22" height="22" rx="4" fill="#2f7d55" opacity="0.52" /><rect x="782" y="206" width="22" height="22" rx="4" fill="#4772b2" opacity="0.72" /><rect x="808" y="206" width="22" height="22" rx="4" fill="#2e9fb3" opacity="0.32" /><rect x="704" y="232" width="22" height="22" rx="4" fill="#2f7d55" opacity="0.62" /><rect x="730" y="232" width="22" height="22" rx="4" fill="#4772b2" opacity="0.32" /><rect x="756" y="232" width="22" height="22" rx="4" fill="#2e9fb3" opacity="0.62" /><rect x="782" y="232" width="22" height="22" rx="4" fill="#d59b2e" opacity="0.32" /><rect x="808" y="232" width="22" height="22" rx="4" fill="#2f7d55" opacity="0.62" /><rect x="704" y="258" width="22" height="22" rx="4" fill="#2e9fb3" opacity="0.52" /><rect x="730" y="258" width="22" height="22" rx="4" fill="#d59b2e" opacity="0.32" /><rect x="756" y="258" width="22" height="22" rx="4" fill="#2f7d55" opacity="0.72" /><rect x="782" y="258" width="22" height="22" rx="4" fill="#4772b2" opacity="0.52" /><rect x="808" y="258" width="22" height="22" rx="4" fill="#2e9fb3" opacity="0.32" /><rect x="704" y="284" width="22" height="22" rx="4" fill="#2f7d55" opacity="0.42" /><rect x="730" y="284" width="22" height="22" rx="4" fill="#4772b2" opacity="0.32" /><rect x="756" y="284" width="22" height="22" rx="4" fill="#2e9fb3" opacity="0.82" /><rect x="782" y="284" width="22" height="22" rx="4" fill="#d59b2e" opacity="0.72" /><rect x="808" y="284" width="22" height="22" rx="4" fill="#2f7d55" opacity="0.62" /><path d="M 704 334 C 742 294 784 350 826 306" fill="none" stroke="#2e9fb3" stroke-width="7" stroke-linecap="round" /></g>
</svg>
