<?xml version="1.0" encoding="UTF-8"?>
<svg xmlns="http://www.w3.org/2000/svg" width="960" height="540" viewBox="0 0 960 540" role="img" aria-labelledby="sdk-uncertainty-cutoffs-svg-title sdk-uncertainty-cutoffs-svg-desc">
  <title id="sdk-uncertainty-cutoffs-svg-title">Uncertainty and cutoffs</title>
  <desc id="sdk-uncertainty-cutoffs-svg-desc">Confidence bands and reporting thresholds around signature calls</desc>
  <defs>
    <linearGradient id="sdk-uncertainty-cutoffs-svg-bg" x1="0" y1="0" x2="1" y2="1">
      <stop offset="0%" stop-color="#fafdff"/>
      <stop offset="58%" stop-color="#eef4fb"/>
      <stop offset="100%" stop-color="#fff0f3"/>
    </linearGradient>
    <radialGradient id="sdk-uncertainty-cutoffs-svg-glow" cx="72%" cy="26%" r="70%">
      <stop offset="0%" stop-color="#c86f80" stop-opacity="0.28"/>
      <stop offset="100%" stop-color="#c86f80" stop-opacity="0"/>
    </radialGradient>
    <filter id="sdk-uncertainty-cutoffs-svg-shadow" x="-18%" y="-18%" width="136%" height="136%">
      <feDropShadow dx="0" dy="16" stdDeviation="20" flood-color="#10201b" flood-opacity="0.12"/>
    </filter>
    <marker id="sdk-uncertainty-cutoffs-svg-arrow" markerWidth="13" markerHeight="13" refX="10" refY="6.5" orient="auto">
      <path d="M 0 0 L 13 6.5 L 0 13 Z" fill="#4772b2"/>
    </marker>
  </defs>
  <rect width="960" height="540" fill="url(#sdk-uncertainty-cutoffs-svg-bg)"/>
  <rect width="960" height="540" fill="url(#sdk-uncertainty-cutoffs-svg-glow)"/>
  <path d="M 42 120 C 210 46 356 74 492 148 C 650 234 738 180 924 108 L 924 0 L 42 0 Z" fill="#c86f8010" /><path d="M 0 426 C 176 362 310 468 492 392 C 674 316 768 370 960 310 L 960 540 L 0 540 Z" fill="#4772b212" />
  <g ><rect x="88" y="130" width="520" height="280" rx="34" fill="#ffffff" stroke="#d8e2dc" stroke-width="2" filter="url(#sdk-uncertainty-cutoffs-svg-shadow)" /><path d="M 130 318 C 190 246 252 260 312 306 S 436 352 564 226" fill="none" stroke="#4772b222" stroke-width="44" stroke-linecap="round" /><path d="M 130 318 C 190 246 252 260 312 306 S 436 352 564 226" fill="none" stroke="#4772b2" stroke-width="7" stroke-linecap="round" stroke-linejoin="round" /><line x1="398" y1="172" x2="398" y2="364" stroke="#c86f80" stroke-width="6" stroke-linecap="round" stroke-dasharray="10 12" /><ellipse cx="170" cy="292" rx="22" ry="58" fill="#4772b235" stroke="#4772b2" stroke-width="3" /><ellipse cx="242" cy="279" rx="22" ry="54" fill="#168a8c35" stroke="#168a8c" stroke-width="3" /><ellipse cx="314" cy="266" rx="22" ry="50" fill="#d59b2e35" stroke="#d59b2e" stroke-width="3" /><ellipse cx="470" cy="253" rx="22" ry="46" fill="#c86f8035" stroke="#c86f80" stroke-width="3" /><ellipse cx="544" cy="240" rx="22" ry="42" fill="#7657b835" stroke="#7657b8" stroke-width="3" /></g><g ><rect x="670" y="166" width="202" height="212" rx="30" fill="#ffffff" stroke="#d8e2dc" stroke-width="2" filter="url(#sdk-uncertainty-cutoffs-svg-shadow)" /><line x1="710" y1="212" x2="832" y2="212" stroke="#dfeae4" stroke-width="8" stroke-linecap="round" /><line x1="694" y1="212" x2="762" y2="212" stroke="#c86f80" stroke-width="8" stroke-linecap="round" /><circle cx="728" cy="212" r="10" fill="#ffffff" stroke="#c86f80" stroke-width="4" /><line x1="710" y1="254" x2="832" y2="254" stroke="#dfeae4" stroke-width="8" stroke-linecap="round" /><line x1="718" y1="254" x2="786" y2="254" stroke="#c86f80" stroke-width="8" stroke-linecap="round" /><circle cx="752" cy="254" r="10" fill="#ffffff" stroke="#c86f80" stroke-width="4" /><line x1="710" y1="296" x2="832" y2="296" stroke="#dfeae4" stroke-width="8" stroke-linecap="round" /><line x1="742" y1="296" x2="810" y2="296" stroke="#c86f80" stroke-width="8" stroke-linecap="round" /><circle cx="776" cy="296" r="10" fill="#ffffff" stroke="#c86f80" stroke-width="4" /><line x1="710" y1="338" x2="832" y2="338" stroke="#dfeae4" stroke-width="8" stroke-linecap="round" /><line x1="766" y1="338" x2="834" y2="338" stroke="#c86f80" stroke-width="8" stroke-linecap="round" /><circle cx="800" cy="338" r="10" fill="#ffffff" stroke="#c86f80" stroke-width="4" /></g>
</svg>
