<?xml version="1.0" encoding="UTF-8"?>
<svg xmlns="http://www.w3.org/2000/svg" width="960" height="540" viewBox="0 0 960 540" role="img" aria-labelledby="sdk-public-cohort-explorer-svg-title sdk-public-cohort-explorer-svg-desc">
  <title id="sdk-public-cohort-explorer-svg-title">Public cohort explorer</title>
  <desc id="sdk-public-cohort-explorer-svg-desc">Public data sources connected to cohort matrix and trend review</desc>
  <defs>
    <linearGradient id="sdk-public-cohort-explorer-svg-bg" x1="0" y1="0" x2="1" y2="1">
      <stop offset="0%" stop-color="#f9fcfb"/>
      <stop offset="58%" stop-color="#eef9f9"/>
      <stop offset="100%" stop-color="#eef3ff"/>
    </linearGradient>
    <radialGradient id="sdk-public-cohort-explorer-svg-glow" cx="72%" cy="26%" r="70%">
      <stop offset="0%" stop-color="#4772b2" stop-opacity="0.28"/>
      <stop offset="100%" stop-color="#4772b2" stop-opacity="0"/>
    </radialGradient>
    <filter id="sdk-public-cohort-explorer-svg-shadow" x="-18%" y="-18%" width="136%" height="136%">
      <feDropShadow dx="0" dy="16" stdDeviation="20" flood-color="#10201b" flood-opacity="0.12"/>
    </filter>
    <marker id="sdk-public-cohort-explorer-svg-arrow" markerWidth="13" markerHeight="13" refX="10" refY="6.5" orient="auto">
      <path d="M 0 0 L 13 6.5 L 0 13 Z" fill="#2e9fb3"/>
    </marker>
  </defs>
  <rect width="960" height="540" fill="url(#sdk-public-cohort-explorer-svg-bg)"/>
  <rect width="960" height="540" fill="url(#sdk-public-cohort-explorer-svg-glow)"/>
  <path d="M 0 390 C 150 316 276 448 424 372 C 548 308 698 328 960 228 L 960 540 L 0 540 Z" fill="#2e9fb312" /><circle cx="132" cy="94" r="104" fill="#4772b212" /><circle cx="850" cy="448" r="146" fill="#2e9fb312" /><path d="M 222 132 C 300 88 370 130 420 176 C 350 190 306 228 268 286 C 224 236 190 188 222 132 Z" fill="#4772b212" stroke="#4772b222" /><path d="M 632 152 C 704 96 802 122 828 204 C 782 250 716 244 672 290 C 620 248 594 198 632 152 Z" fill="#2e9fb312" stroke="#2e9fb322" />
  <ellipse cx="155" cy="200" rx="59" ry="18" fill="#4772b244" stroke="#4772b2" stroke-width="2" /><rect x="96" y="200" width="118" height="172" fill="#4772b222" stroke="#4772b2" stroke-width="2" /><ellipse cx="155" cy="372" rx="59" ry="18" fill="#ffffff" stroke="#4772b2" stroke-width="2" /><ellipse cx="155" cy="264.56" rx="59" ry="18" fill="none" stroke="#4772b2" stroke-width="2" opacity="0.5" /><ellipse cx="291" cy="168" rx="59" ry="18" fill="#2e9fb344" stroke="#2e9fb3" stroke-width="2" /><rect x="232" y="168" width="118" height="204" fill="#2e9fb322" stroke="#2e9fb3" stroke-width="2" /><ellipse cx="291" cy="372" rx="59" ry="18" fill="#ffffff" stroke="#2e9fb3" stroke-width="2" /><ellipse cx="291" cy="247.92000000000002" rx="59" ry="18" fill="none" stroke="#2e9fb3" stroke-width="2" opacity="0.5" /><circle cx="420" cy="170" r="18" fill="#d59b2e" /><circle cx="486" cy="220" r="13" fill="#168a8c" /><circle cx="440" cy="304" r="13" fill="#4772b2" /><circle cx="538" cy="326" r="13" fill="#2f7d55" /><circle cx="594" cy="248" r="13" fill="#c86f80" /><line x1="420" y1="170" x2="486" y2="220" stroke="#405168" stroke-width="4" opacity="0.55" /><line x1="486" y1="220" x2="594" y2="248" stroke="#405168" stroke-width="4" opacity="0.55" /><line x1="440" y1="304" x2="538" y2="326" stroke="#405168" stroke-width="4" opacity="0.55" /><line x1="486" y1="220" x2="440" y2="304" stroke="#405168" stroke-width="4" opacity="0.55" /><g ><rect x="660" y="136" width="210" height="236" rx="28" fill="#ffffff" stroke="#d8e2dc" stroke-width="2" filter="url(#sdk-public-cohort-explorer-svg-shadow)" /><rect x="694" y="178" width="21" height="21" rx="4" fill="#2e9fb3" opacity="0.72" /><rect x="719" y="178" width="21" height="21" rx="4" fill="#d59b2e" opacity="0.32" /><rect x="744" y="178" width="21" height="21" rx="4" fill="#2f7d55" opacity="0.52" /><rect x="769" y="178" width="21" height="21" rx="4" fill="#4772b2" opacity="0.72" /><rect x="794" y="178" width="21" height="21" rx="4" fill="#2e9fb3" opacity="0.32" /><rect x="819" y="178" width="21" height="21" rx="4" fill="#d59b2e" opacity="0.52" /><rect x="694" y="203" width="21" height="21" rx="4" fill="#2f7d55" opacity="0.62" /><rect x="719" y="203" width="21" height="21" rx="4" fill="#4772b2" opacity="0.32" /><rect x="744" y="203" width="21" height="21" rx="4" fill="#2e9fb3" opacity="0.62" /><rect x="769" y="203" width="21" height="21" rx="4" fill="#d59b2e" opacity="0.32" /><rect x="794" y="203" width="21" height="21" rx="4" fill="#2f7d55" opacity="0.62" /><rect x="819" y="203" width="21" height="21" rx="4" fill="#4772b2" opacity="0.32" /><rect x="694" y="228" width="21" height="21" rx="4" fill="#2e9fb3" opacity="0.52" /><rect x="719" y="228" width="21" height="21" rx="4" fill="#d59b2e" opacity="0.32" /><rect x="744" y="228" width="21" height="21" rx="4" fill="#2f7d55" opacity="0.72" /><rect x="769" y="228" width="21" height="21" rx="4" fill="#4772b2" opacity="0.52" /><rect x="794" y="228" width="21" height="21" rx="4" fill="#2e9fb3" opacity="0.32" /><rect x="819" y="228" width="21" height="21" rx="4" fill="#d59b2e" opacity="0.72" /><rect x="694" y="253" width="21" height="21" rx="4" fill="#2f7d55" opacity="0.42" /><rect x="719" y="253" width="21" height="21" rx="4" fill="#4772b2" opacity="0.32" /><rect x="744" y="253" width="21" height="21" rx="4" fill="#2e9fb3" opacity="0.82" /><rect x="769" y="253" width="21" height="21" rx="4" fill="#d59b2e" opacity="0.72" /><rect x="794" y="253" width="21" height="21" rx="4" fill="#2f7d55" opacity="0.62" /><rect x="819" y="253" width="21" height="21" rx="4" fill="#4772b2" opacity="0.52" /><rect x="694" y="278" width="21" height="21" rx="4" fill="#2e9fb3" opacity="0.32" /><rect x="719" y="278" width="21" height="21" rx="4" fill="#d59b2e" opacity="0.32" /><rect x="744" y="278" width="21" height="21" rx="4" fill="#2f7d55" opacity="0.32" /><rect x="769" y="278" width="21" height="21" rx="4" fill="#4772b2" opacity="0.32" /><rect x="794" y="278" width="21" height="21" rx="4" fill="#2e9fb3" opacity="0.32" /><rect x="819" y="278" width="21" height="21" rx="4" fill="#d59b2e" opacity="0.32" /><polyline points="704,330 738,306 774,320 812,284 846,294" fill="none" stroke="#2e9fb3" stroke-width="5" stroke-linecap="round" stroke-linejoin="round" /><circle cx="704" cy="330" r="6" fill="#ffffff" stroke="#2e9fb3" stroke-width="3" /><circle cx="738" cy="306" r="6" fill="#ffffff" stroke="#2e9fb3" stroke-width="3" /><circle cx="774" cy="320" r="6" fill="#ffffff" stroke="#2e9fb3" stroke-width="3" /><circle cx="812" cy="284" r="6" fill="#ffffff" stroke="#2e9fb3" stroke-width="3" /><circle cx="846" cy="294" r="6" fill="#ffffff" stroke="#2e9fb3" stroke-width="3" /></g>
</svg>
