<?xml version="1.0" encoding="UTF-8"?>
<svg xmlns="http://www.w3.org/2000/svg" width="960" height="540" viewBox="0 0 960 540" role="img" aria-labelledby="sdk-report-packet-svg-title sdk-report-packet-svg-desc">
  <title id="sdk-report-packet-svg-title">Report packet builder</title>
  <desc id="sdk-report-packet-svg-desc">Reviewable report archive, manifest, and audit checks</desc>
  <defs>
    <linearGradient id="sdk-report-packet-svg-bg" x1="0" y1="0" x2="1" y2="1">
      <stop offset="0%" stop-color="#fffdf7"/>
      <stop offset="58%" stop-color="#fbf5e8"/>
      <stop offset="100%" stop-color="#edf8f0"/>
    </linearGradient>
    <radialGradient id="sdk-report-packet-svg-glow" cx="72%" cy="26%" r="70%">
      <stop offset="0%" stop-color="#2f7d55" stop-opacity="0.28"/>
      <stop offset="100%" stop-color="#2f7d55" stop-opacity="0"/>
    </radialGradient>
    <filter id="sdk-report-packet-svg-shadow" x="-18%" y="-18%" width="136%" height="136%">
      <feDropShadow dx="0" dy="16" stdDeviation="20" flood-color="#10201b" flood-opacity="0.12"/>
    </filter>
    <marker id="sdk-report-packet-svg-arrow" markerWidth="13" markerHeight="13" refX="10" refY="6.5" orient="auto">
      <path d="M 0 0 L 13 6.5 L 0 13 Z" fill="#d59b2e"/>
    </marker>
  </defs>
  <rect width="960" height="540" fill="url(#sdk-report-packet-svg-bg)"/>
  <rect width="960" height="540" fill="url(#sdk-report-packet-svg-glow)"/>
  <path d="M 0 390 C 150 316 276 448 424 372 C 548 308 698 328 960 228 L 960 540 L 0 540 Z" fill="#d59b2e12" /><circle cx="132" cy="94" r="104" fill="#2f7d5512" /><circle cx="850" cy="448" r="146" fill="#d59b2e12" />
  <g ><rect x="112" y="122" width="150" height="176" rx="18" fill="#ffffff" stroke="#d8e2dc" stroke-width="2" /><path d="M 218 122 L 262 166 L 218 166 Z" fill="#168a8c33" /><rect x="136" y="156" width="69" height="12" rx="6" fill="#168a8c" /><rect x="136" y="188" width="99" height="9" rx="5" fill="#dce8e1" /><rect x="136" y="212" width="78" height="9" rx="5" fill="#dce8e1" /><rect x="138" y="150" width="150" height="176" rx="18" fill="#ffffff" stroke="#d8e2dc" stroke-width="2" /><path d="M 244 150 L 288 194 L 244 194 Z" fill="#4772b233" /><rect x="162" y="184" width="69" height="12" rx="6" fill="#4772b2" /><rect x="162" y="216" width="99" height="9" rx="5" fill="#dce8e1" /><rect x="162" y="240" width="78" height="9" rx="5" fill="#dce8e1" /><rect x="164" y="178" width="150" height="176" rx="18" fill="#ffffff" stroke="#d8e2dc" stroke-width="2" /><path d="M 270 178 L 314 222 L 270 222 Z" fill="#d59b2e33" /><rect x="188" y="212" width="69" height="12" rx="6" fill="#d59b2e" /><rect x="188" y="244" width="99" height="9" rx="5" fill="#dce8e1" /><rect x="188" y="268" width="78" height="9" rx="5" fill="#dce8e1" /></g><path d="M 340 272 C 416 216 484 218 536 274" stroke="#d59b2e" stroke-width="7" fill="none" stroke-linecap="round" marker-end="url(#sdk-report-packet-svg-arrow)" /><g ><rect x="514" y="172" width="194" height="188" rx="32" fill="#ffffff" stroke="#d8e2dc" stroke-width="2" filter="url(#sdk-report-packet-svg-shadow)" /><path d="M 556 250 Q 556 234 574 234 H 595.6 L 606.6 216 H 648.4 Q 666 216 666 234 V 302 Q 666 320 648 320 H 574 Q 556 320 556 302 Z" fill="#d59b2e33" stroke="#d59b2e" stroke-width="2" /><rect x="576" y="268" width="70" height="58" rx="18" fill="#ffffff" opacity="0.72" /><rect x="592" y="306" width="52" height="16" rx="8" fill="#d59b2e" /></g><g ><rect x="748" y="144" width="126" height="244" rx="30" fill="#ffffff" stroke="#d8e2dc" stroke-width="2" filter="url(#sdk-report-packet-svg-shadow)" /><circle cx="811" cy="204" r="24" fill="#eef8f1" stroke="#2f7d55" stroke-width="8" /><path d="M 800.44 204 L 808.12 211.68 L 822.52 195.36" fill="none" stroke="#2f7d55" stroke-width="9" stroke-linecap="round" stroke-linejoin="round" /><circle cx="811" cy="270" r="24" fill="#eef8f1" stroke="#2f7d55" stroke-width="8" /><path d="M 800.44 270 L 808.12 277.68 L 822.52 261.36" fill="none" stroke="#2f7d55" stroke-width="9" stroke-linecap="round" stroke-linejoin="round" /><circle cx="811" cy="336" r="24" fill="#eef8f1" stroke="#2f7d55" stroke-width="8" /><path d="M 800.44 336 L 808.12 343.68 L 822.52 327.36" fill="none" stroke="#2f7d55" stroke-width="9" stroke-linecap="round" stroke-linejoin="round" /></g><circle cx="676" cy="170" r="34" fill="#2f7d5518" stroke="#2f7d55" stroke-width="5" /><path d="M 664 170 L 674 182 L 694 154" fill="none" stroke="#2f7d55" stroke-width="7" stroke-linecap="round" stroke-linejoin="round" />
</svg>
