<?xml version="1.0" encoding="UTF-8"?>
<svg xmlns="http://www.w3.org/2000/svg" width="960" height="540" viewBox="0 0 960 540" role="img" aria-labelledby="sdk-end-to-end-workflow-svg-title sdk-end-to-end-workflow-svg-desc">
  <title id="sdk-end-to-end-workflow-svg-title">End-to-end workflow</title>
  <desc id="sdk-end-to-end-workflow-svg-desc">Diagonal pipeline from spectra input to reviewed report output</desc>
  <defs>
    <linearGradient id="sdk-end-to-end-workflow-svg-bg" x1="0" y1="0" x2="1" y2="1">
      <stop offset="0%" stop-color="#fafdff"/>
      <stop offset="58%" stop-color="#f1f7fb"/>
      <stop offset="100%" stop-color="#ecf8f4"/>
    </linearGradient>
    <radialGradient id="sdk-end-to-end-workflow-svg-glow" cx="72%" cy="26%" r="70%">
      <stop offset="0%" stop-color="#168a8c" stop-opacity="0.28"/>
      <stop offset="100%" stop-color="#168a8c" stop-opacity="0"/>
    </radialGradient>
    <filter id="sdk-end-to-end-workflow-svg-shadow" x="-18%" y="-18%" width="136%" height="136%">
      <feDropShadow dx="0" dy="16" stdDeviation="20" flood-color="#10201b" flood-opacity="0.12"/>
    </filter>
    <marker id="sdk-end-to-end-workflow-svg-arrow" markerWidth="13" markerHeight="13" refX="10" refY="6.5" orient="auto">
      <path d="M 0 0 L 13 6.5 L 0 13 Z" fill="#4772b2"/>
    </marker>
  </defs>
  <rect width="960" height="540" fill="url(#sdk-end-to-end-workflow-svg-bg)"/>
  <rect width="960" height="540" fill="url(#sdk-end-to-end-workflow-svg-glow)"/>
  <line x1="80" y1="58" x2="80" y2="482" stroke="#4772b213" stroke-width="2" /><line x1="178" y1="58" x2="178" y2="482" stroke="#4772b213" stroke-width="2" /><line x1="276" y1="58" x2="276" y2="482" stroke="#4772b213" stroke-width="2" /><line x1="374" y1="58" x2="374" y2="482" stroke="#4772b213" stroke-width="2" /><line x1="472" y1="58" x2="472" y2="482" stroke="#4772b213" stroke-width="2" /><line x1="570" y1="58" x2="570" y2="482" stroke="#4772b213" stroke-width="2" /><line x1="668" y1="58" x2="668" y2="482" stroke="#4772b213" stroke-width="2" /><line x1="766" y1="58" x2="766" y2="482" stroke="#4772b213" stroke-width="2" /><line x1="864" y1="58" x2="864" y2="482" stroke="#4772b213" stroke-width="2" /><line x1="48" y1="96" x2="912" y2="96" stroke="#168a8c13" stroke-width="2" /><line x1="48" y1="184" x2="912" y2="184" stroke="#168a8c13" stroke-width="2" /><line x1="48" y1="272" x2="912" y2="272" stroke="#168a8c13" stroke-width="2" /><line x1="48" y1="360" x2="912" y2="360" stroke="#168a8c13" stroke-width="2" /><line x1="48" y1="448" x2="912" y2="448" stroke="#168a8c13" stroke-width="2" /><circle cx="824" cy="104" r="116" fill="#168a8c12" />
  <path d="M 96 386 L 834 150" stroke="#4772b235" stroke-width="58" stroke-linecap="round" /><path d="M 112 384 L 818 158" stroke="#4772b2" stroke-width="8" stroke-linecap="round" stroke-dasharray="1 24" /><g ><rect x="88" y="300" width="158" height="132" rx="26" fill="#ffffff" stroke="#d8e2dc" stroke-width="2" filter="url(#sdk-end-to-end-workflow-svg-shadow)" /><rect x="126" y="379.64" width="10" height="18.360000000000003" rx="8" fill="#4772b2" /><rect x="144" y="364.52" width="10" height="33.48" rx="8" fill="#d59b2e" /><rect x="162" y="374.24" width="10" height="23.76" rx="8" fill="#4772b2" /><rect x="180" y="355.88" width="10" height="42.120000000000005" rx="8" fill="#d59b2e" /><rect x="198" y="369.92" width="10" height="28.080000000000002" rx="8" fill="#4772b2" /></g><g ><rect x="292" y="232" width="164" height="142" rx="26" fill="#ffffff" stroke="#d8e2dc" stroke-width="2" filter="url(#sdk-end-to-end-workflow-svg-shadow)" /><rect x="330" y="270" width="16" height="16" rx="4" fill="#4772b2" opacity="0.72" /><rect x="350" y="270" width="16" height="16" rx="4" fill="#d59b2e" opacity="0.32" /><rect x="370" y="270" width="16" height="16" rx="4" fill="#7657b8" opacity="0.52" /><rect x="390" y="270" width="16" height="16" rx="4" fill="#168a8c" opacity="0.72" /><rect x="410" y="270" width="16" height="16" rx="4" fill="#4772b2" opacity="0.32" /><rect x="330" y="290" width="16" height="16" rx="4" fill="#7657b8" opacity="0.62" /><rect x="350" y="290" width="16" height="16" rx="4" fill="#168a8c" opacity="0.32" /><rect x="370" y="290" width="16" height="16" rx="4" fill="#4772b2" opacity="0.62" /><rect x="390" y="290" width="16" height="16" rx="4" fill="#d59b2e" opacity="0.32" /><rect x="410" y="290" width="16" height="16" rx="4" fill="#7657b8" opacity="0.62" /><rect x="330" y="310" width="16" height="16" rx="4" fill="#4772b2" opacity="0.52" /><rect x="350" y="310" width="16" height="16" rx="4" fill="#d59b2e" opacity="0.32" /><rect x="370" y="310" width="16" height="16" rx="4" fill="#7657b8" opacity="0.72" /><rect x="390" y="310" width="16" height="16" rx="4" fill="#168a8c" opacity="0.52" /><rect x="410" y="310" width="16" height="16" rx="4" fill="#4772b2" opacity="0.32" /><rect x="330" y="330" width="16" height="16" rx="4" fill="#7657b8" opacity="0.42" /><rect x="350" y="330" width="16" height="16" rx="4" fill="#168a8c" opacity="0.32" /><rect x="370" y="330" width="16" height="16" rx="4" fill="#4772b2" opacity="0.82" /><rect x="390" y="330" width="16" height="16" rx="4" fill="#d59b2e" opacity="0.72" /><rect x="410" y="330" width="16" height="16" rx="4" fill="#7657b8" opacity="0.62" /></g><g ><rect x="502" y="172" width="164" height="142" rx="26" fill="#ffffff" stroke="#d8e2dc" stroke-width="2" filter="url(#sdk-end-to-end-workflow-svg-shadow)" /><circle cx="556" cy="232" r="28" fill="#168a8c16" stroke="#168a8c" stroke-width="8" /><line x1="575.04" y1="251.04" x2="591.84" y2="267.84000000000003" stroke="#168a8c" stroke-width="10" stroke-linecap="round" /><rect x="588" y="264" width="42" height="14" rx="7" fill="#d59b2e" /></g><g ><rect x="706" y="104" width="164" height="142" rx="26" fill="#ffffff" stroke="#d8e2dc" stroke-width="2" filter="url(#sdk-end-to-end-workflow-svg-shadow)" /><rect x="738" y="130" width="72" height="88" rx="18" fill="#ffffff" stroke="#d8e2dc" stroke-width="2" /><path d="M 766 130 L 810 174 L 766 174 Z" fill="#2f7d5533" /><rect x="762" y="164" width="33.120000000000005" height="12" rx="6" fill="#2f7d55" /><rect x="762" y="196" width="47.52" height="9" rx="5" fill="#dce8e1" /><rect x="762" y="220" width="37.44" height="9" rx="5" fill="#dce8e1" /><circle cx="826" cy="178" r="28" fill="#eef8f1" stroke="#2f7d55" stroke-width="8" /><path d="M 813.68 178 L 822.64 186.96 L 839.44 167.92" fill="none" stroke="#2f7d55" stroke-width="9" stroke-linecap="round" stroke-linejoin="round" /></g><circle cx="240" cy="340" r="10" fill="#4772b2" /><circle cx="456" cy="272" r="10" fill="#4772b2" /><circle cx="666" cy="210" r="10" fill="#4772b2" />
</svg>
