<?xml version="1.0" encoding="UTF-8"?>
<svg xmlns="http://www.w3.org/2000/svg" width="960" height="540" viewBox="0 0 960 540" role="img" aria-labelledby="sdk-hero-overview-svg-title sdk-hero-overview-svg-desc">
  <title id="sdk-hero-overview-svg-title">One-command mSigSDK import</title>
  <desc id="sdk-hero-overview-svg-desc">Hosted SDK module connected to analysis tools</desc>
  <defs>
    <linearGradient id="sdk-hero-overview-svg-bg" x1="0" y1="0" x2="1" y2="1">
      <stop offset="0%" stop-color="#fbfcf8"/>
      <stop offset="58%" stop-color="#f3faf7"/>
      <stop offset="100%" stop-color="#fff3d5"/>
    </linearGradient>
    <radialGradient id="sdk-hero-overview-svg-glow" cx="72%" cy="26%" r="70%">
      <stop offset="0%" stop-color="#d59b2e" stop-opacity="0.28"/>
      <stop offset="100%" stop-color="#d59b2e" stop-opacity="0"/>
    </radialGradient>
    <filter id="sdk-hero-overview-svg-shadow" x="-18%" y="-18%" width="136%" height="136%">
      <feDropShadow dx="0" dy="16" stdDeviation="20" flood-color="#10201b" flood-opacity="0.12"/>
    </filter>
    <marker id="sdk-hero-overview-svg-arrow" markerWidth="13" markerHeight="13" refX="10" refY="6.5" orient="auto">
      <path d="M 0 0 L 13 6.5 L 0 13 Z" fill="#168a8c"/>
    </marker>
  </defs>
  <rect width="960" height="540" fill="url(#sdk-hero-overview-svg-bg)"/>
  <rect width="960" height="540" fill="url(#sdk-hero-overview-svg-glow)"/>
  <ellipse cx="480" cy="270" rx="390" ry="170" fill="none" stroke="#168a8c22" stroke-width="28" /><ellipse cx="480" cy="270" rx="310" ry="112" fill="none" stroke="#d59b2e20" stroke-width="18" /><circle cx="126" cy="102" r="118" fill="#168a8c12" /><circle cx="840" cy="438" r="170" fill="#d59b2e14" />
  <ellipse cx="480" cy="270" rx="242" ry="82" fill="#168a8c10" stroke="#168a8c22" stroke-width="4" /><g ><rect x="392" y="186" width="176" height="168" rx="28" fill="#ffffff" stroke="#d8e2dc" stroke-width="2" filter="url(#sdk-hero-overview-svg-shadow)" /><rect x="426" y="224" width="108" height="20" rx="10" fill="#168a8c28" />,<rect x="426" y="262" width="78" height="14" rx="7" fill="#168a8c" />,<rect x="426" y="292" width="108" height="12" rx="6" fill="#dfeae4" /></g><line x1="480" y1="270" x2="192" y2="160" stroke="#4772b266" stroke-width="5" stroke-linecap="round" /><g ><rect x="120" y="88" width="144" height="144" rx="30" fill="#ffffff" stroke="#d8e2dc" stroke-width="2" filter="url(#sdk-hero-overview-svg-shadow)" /><rect x="154" y="191.68" width="13.5" height="22.32" rx="8" fill="#4772b2" /><rect x="175.5" y="175.56" width="13.5" height="38.44" rx="8" fill="#d59b2e" /><rect x="197" y="186.72" width="13.5" height="27.28" rx="8" fill="#4772b2" /><rect x="218.5" y="165.64" width="13.5" height="48.36" rx="8" fill="#d59b2e" /></g><line x1="480" y1="270" x2="754" y2="144" stroke="#2f7d5566" stroke-width="5" stroke-linecap="round" /><g ><rect x="682" y="72" width="144" height="144" rx="30" fill="#ffffff" stroke="#d8e2dc" stroke-width="2" filter="url(#sdk-hero-overview-svg-shadow)" /><rect x="706" y="110" width="20" height="20" rx="4" fill="#168a8c" opacity="0.72" /><rect x="730" y="110" width="20" height="20" rx="4" fill="#168a8c" opacity="0.32" /><rect x="754" y="110" width="20" height="20" rx="4" fill="#168a8c" opacity="0.52" /><rect x="778" y="110" width="20" height="20" rx="4" fill="#168a8c" opacity="0.72" /><rect x="802" y="110" width="20" height="20" rx="4" fill="#168a8c" opacity="0.32" /><rect x="706" y="134" width="20" height="20" rx="4" fill="#d59b2e" opacity="0.62" /><rect x="730" y="134" width="20" height="20" rx="4" fill="#d59b2e" opacity="0.32" /><rect x="754" y="134" width="20" height="20" rx="4" fill="#d59b2e" opacity="0.62" /><rect x="778" y="134" width="20" height="20" rx="4" fill="#d59b2e" opacity="0.32" /><rect x="802" y="134" width="20" height="20" rx="4" fill="#d59b2e" opacity="0.62" /><rect x="706" y="158" width="20" height="20" rx="4" fill="#2f7d55" opacity="0.52" /><rect x="730" y="158" width="20" height="20" rx="4" fill="#2f7d55" opacity="0.32" /><rect x="754" y="158" width="20" height="20" rx="4" fill="#2f7d55" opacity="0.72" /><rect x="778" y="158" width="20" height="20" rx="4" fill="#2f7d55" opacity="0.52" /><rect x="802" y="158" width="20" height="20" rx="4" fill="#2f7d55" opacity="0.32" /><rect x="706" y="182" width="20" height="20" rx="4" fill="#168a8c" opacity="0.42" /><rect x="730" y="182" width="20" height="20" rx="4" fill="#168a8c" opacity="0.32" /><rect x="754" y="182" width="20" height="20" rx="4" fill="#168a8c" opacity="0.82" /><rect x="778" y="182" width="20" height="20" rx="4" fill="#168a8c" opacity="0.72" /><rect x="802" y="182" width="20" height="20" rx="4" fill="#168a8c" opacity="0.62" /></g><line x1="480" y1="270" x2="788" y2="384" stroke="#c86f8066" stroke-width="5" stroke-linecap="round" /><g ><rect x="716" y="312" width="144" height="144" rx="30" fill="#ffffff" stroke="#d8e2dc" stroke-width="2" filter="url(#sdk-hero-overview-svg-shadow)" /><rect x="736" y="314" width="104" height="122" rx="18" fill="#ffffff" stroke="#d8e2dc" stroke-width="2" /><path d="M 796 314 L 840 358 L 796 358 Z" fill="#c86f8033" /><rect x="760" y="348" width="47.84" height="12" rx="6" fill="#c86f80" /><rect x="760" y="380" width="68.64" height="9" rx="5" fill="#dce8e1" /><rect x="760" y="404" width="54.08" height="9" rx="5" fill="#dce8e1" /></g><line x1="480" y1="270" x2="202" y2="392" stroke="#7657b866" stroke-width="5" stroke-linecap="round" /><g ><rect x="130" y="320" width="144" height="144" rx="30" fill="#ffffff" stroke="#d8e2dc" stroke-width="2" filter="url(#sdk-hero-overview-svg-shadow)" /><circle cx="202" cy="368" r="32" fill="#7657b816" stroke="#7657b8" stroke-width="8" /><line x1="223.76" y1="389.76" x2="242.96" y2="408.96" stroke="#7657b8" stroke-width="10" stroke-linecap="round" /></g><circle cx="480" cy="270" r="16" fill="#168a8c" /><circle cx="480" cy="270" r="76" fill="none" stroke="#168a8c33" stroke-width="12" />
</svg>
