<?xml version="1.0" encoding="UTF-8"?>
<svg xmlns="http://www.w3.org/2000/svg" width="1500" height="1180" viewBox="0 0 1500 1180" role="img">
  <style>
    text { font-family: Arial, Helvetica, sans-serif; fill: #16212f; letter-spacing: 0; }
    .white { fill: #ffffff !important; }
    .title { font-size: 34px; font-weight: 700; }
    .subtitle { font-size: 18px; fill: #5d6978; }
    .label { font-size: 17px; }
    .small { font-size: 14px; fill: #5d6978; }
    .strong { font-weight: 700; fill: #16212f; }
    .value { font-size: 20px; font-weight: 700; }
    .axis-title { font-size: 15px; font-weight: 700; fill: #5d6978; }
  </style>
  <rect width="1500" height="1180" fill="#ffffff"/>
  <text x="70" y="65" class="title">Figure 3. Public-cohort capability</text><text x="70" y="97" class="subtitle">38 PCAWG Lung-AdenoCA SBS96 spectra refit against the 67-signature COSMIC v3 GRCh37 catalog.</text>
  <rect x="70" y="145" width="640" height="410" rx="10" fill="#ffffff" stroke="#e4e9ef"/>
    <circle cx="104" cy="179" r="18" fill="#16212f"/><text x="104" y="186" text-anchor="middle" class="white" font-size="17" font-weight="700">A</text>
    <text x="134" y="185" class="label strong">Mean normalized COSMIC exposure</text><text x="206" y="232" text-anchor="end" class="small strong">SBS4</text>
        <rect x="220" y="215" width="298.99168642023943" height="23" rx="4" fill="#0072b2"/>
        <text x="526.9916864202394" y="232" class="small">0.240 55%</text><text x="206" y="264" text-anchor="end" class="small strong">SBS40</text>
        <rect x="220" y="247" width="95.2840575937409" height="23" rx="4" fill="#009e73"/>
        <text x="323.2840575937409" y="264" class="small">0.077 55%</text><text x="206" y="296" text-anchor="end" class="small strong">SBS8</text>
        <rect x="220" y="279" width="71.6580689938401" height="23" rx="4" fill="#e69f00"/>
        <text x="299.6580689938401" y="296" class="small">0.058 53%</text><text x="206" y="328" text-anchor="end" class="small strong">SBS2</text>
        <rect x="220" y="311" width="70.41283602260486" height="23" rx="4" fill="#6f4aa2"/>
        <text x="298.4128360226049" y="328" class="small">0.057 29%</text><text x="206" y="360" text-anchor="end" class="small strong">SBS13</text>
        <rect x="220" y="343" width="68.70881638048196" height="23" rx="4" fill="#56b4e9"/>
        <text x="296.70881638048195" y="360" class="small">0.055 32%</text><text x="206" y="392" text-anchor="end" class="small strong">SBS18</text>
        <rect x="220" y="375" width="61.766201531319695" height="23" rx="4" fill="#0072b2"/>
        <text x="289.76620153131967" y="392" class="small">0.050 39%</text><text x="206" y="424" text-anchor="end" class="small strong">SBS1</text>
        <rect x="220" y="407" width="61.22239736598717" height="23" rx="4" fill="#009e73"/>
        <text x="289.22239736598715" y="424" class="small">0.049 32%</text><text x="206" y="456" text-anchor="end" class="small strong">SBS39</text>
        <rect x="220" y="439" width="58.1996671947989" height="23" rx="4" fill="#e69f00"/>
        <text x="286.1996671947989" y="456" class="small">0.047 42%</text><text x="206" y="488" text-anchor="end" class="small strong">SBS30</text>
        <rect x="220" y="471" width="37.41060581085501" height="23" rx="4" fill="#6f4aa2"/>
        <text x="265.41060581085503" y="488" class="small">0.030 16%</text><text x="206" y="520" text-anchor="end" class="small strong">Other</text>
        <rect x="220" y="503" width="420" height="23" rx="4" fill="#8a939d"/>
        <text x="648" y="520" class="small">0.338</text>
  <rect x="790" y="145" width="640" height="410" rx="10" fill="#ffffff" stroke="#e4e9ef"/>
    <circle cx="824" cy="179" r="18" fill="#16212f"/><text x="824" y="186" text-anchor="middle" class="white" font-size="17" font-weight="700">B</text>
    <text x="854" y="185" class="label strong">QC metrics and mutation burden</text><rect x="825" y="210" width="160" height="62" rx="8" fill="#f8fbfd" stroke="#e4e9ef"/>
    <text x="839" y="233" class="small strong">Samples</text>
    <text x="839" y="260" class="value" style="fill:#16212f">38</text><rect x="1010" y="210" width="160" height="62" rx="8" fill="#f8fbfd" stroke="#e4e9ef"/>
    <text x="1024" y="233" class="small strong">Median burden</text>
    <text x="1024" y="260" class="value" style="fill:#16212f">21,820</text><rect x="1195" y="210" width="160" height="62" rx="8" fill="#f8fbfd" stroke="#e4e9ef"/>
    <text x="1209" y="233" class="small strong">Median fit cosine</text>
    <text x="1209" y="260" class="value" style="fill:#009e73">0.997</text><line x1="872" y1="451" x2="1372" y2="451" stroke="#16212f"/><circle cx="872" cy="433" r="4.5" fill="#0072b2" opacity="0.72"/><circle cx="872.0513469105375" cy="429.2162162162162" r="4.5" fill="#0072b2" opacity="0.72"/><circle cx="875.324036840057" cy="425.43243243243245" r="4.5" fill="#0072b2" opacity="0.72"/><circle cx="876.1374800017296" cy="421.64864864864865" r="4.5" fill="#0072b2" opacity="0.72"/><circle cx="876.7401305833009" cy="417.86486486486484" r="4.5" fill="#0072b2" opacity="0.72"/><circle cx="881.2964932762571" cy="414.0810810810811" r="4.5" fill="#0072b2" opacity="0.72"/><circle cx="881.9802179270982" cy="410.2972972972973" r="4.5" fill="#0072b2" opacity="0.72"/><circle cx="884.1557054525014" cy="406.5135135135135" r="4.5" fill="#0072b2" opacity="0.72"/><circle cx="884.607017771436" cy="402.72972972972974" r="4.5" fill="#0072b2" opacity="0.72"/><circle cx="885.5690967267695" cy="398.94594594594594" r="4.5" fill="#0072b2" opacity="0.72"/><circle cx="887.5364941410472" cy="395.1621621621622" r="4.5" fill="#0072b2" opacity="0.72"/><circle cx="891.703701301509" cy="391.3783783783784" r="4.5" fill="#0072b2" opacity="0.72"/><circle cx="897.7275046482466" cy="387.5945945945946" r="4.5" fill="#0072b2" opacity="0.72"/><circle cx="898.3355601677692" cy="383.81081081081084" r="4.5" fill="#0072b2" opacity="0.72"/><circle cx="904.7025770744152" cy="380.02702702702703" r="4.5" fill="#0072b2" opacity="0.72"/><circle cx="908.4427941367234" cy="376.2432432432432" r="4.5" fill="#0072b2" opacity="0.72"/><circle cx="912.9370000432395" cy="372.4594594594595" r="4.5" fill="#0072b2" opacity="0.72"/><circle cx="914.1260863925282" cy="368.6756756756757" r="4.5" fill="#0072b2" opacity="0.72"/><circle cx="925.2116141306698" cy="364.8918918918919" r="4.5" fill="#0072b2" opacity="0.72"/><circle cx="933.651424741644" cy="361.1081081081081" r="4.5" fill="#0072b2" opacity="0.72"/><circle cx="936.1322912612964" cy="357.3243243243243" r="4.5" fill="#0072b2" opacity="0.72"/><circle cx="940.5562329744455" cy="353.5405405405405" r="4.5" fill="#0072b2" opacity="0.72"/><circle cx="959.7491676395555" cy="349.7567567567568" r="4.5" fill="#0072b2" opacity="0.72"/><circle cx="960.8815021403555" cy="345.97297297297297" r="4.5" fill="#0072b2" opacity="0.72"/><circle cx="974.2262939421455" cy="342.18918918918916" r="4.5" fill="#0072b2" opacity="0.72"/><circle cx="978.993449215203" cy="338.4054054054054" r="4.5" fill="#0072b2" opacity="0.72"/><circle cx="984.833484671596" cy="334.6216216216216" r="4.5" fill="#0072b2" opacity="0.72"/><circle cx="986.3333549530852" cy="330.8378378378378" r="4.5" fill="#0072b2" opacity="0.72"/><circle cx="999.4268171401393" cy="327.05405405405406" r="4.5" fill="#0072b2" opacity="0.72"/><circle cx="1000.883447918018" cy="323.27027027027026" r="4.5" fill="#0072b2" opacity="0.72"/><circle cx="1014.7876507977688" cy="319.48648648648646" r="4.5" fill="#0072b2" opacity="0.72"/><circle cx="1015.1389717646041" cy="315.7027027027027" r="4.5" fill="#0072b2" opacity="0.72"/><circle cx="1036.1858001470143" cy="311.9189189189189" r="4.5" fill="#0072b2" opacity="0.72"/><circle cx="1049.1927833268473" cy="308.1351351351351" r="4.5" fill="#0072b2" opacity="0.72"/><circle cx="1168.6202922990444" cy="304.35135135135135" r="4.5" fill="#0072b2" opacity="0.72"/><circle cx="1178.0140744584253" cy="300.5675675675676" r="4.5" fill="#0072b2" opacity="0.72"/><circle cx="1294.8688329657975" cy="296.78378378378375" r="4.5" fill="#0072b2" opacity="0.72"/><circle cx="1372" cy="293" r="4.5" fill="#0072b2" opacity="0.72"/><line x1="929.4315194361569" y1="281" x2="929.4315194361569" y2="461" stroke="#009e73" stroke-width="2.5"/><text x="937.4315194361569" y="273" class="small strong" fill="#009e73">median</text><text x="1122" y="487" text-anchor="middle" class="axis-title">SBS mutation burden per sample</text><text x="825" y="520" class="small">Minimum fit cosine: 0.984; all values computed from the saved 38-sample public input.</text>
  <rect x="70" y="655" width="640" height="410" rx="10" fill="#ffffff" stroke="#e4e9ef"/>
    <circle cx="104" cy="689" r="18" fill="#16212f"/><text x="104" y="696" text-anchor="middle" class="white" font-size="17" font-weight="700">C</text>
    <text x="134" y="695" class="label strong">Exposure-threshold sensitivity</text><line x1="152" y1="980" x2="632" y2="980" stroke="#16212f"/><rect x="129" y="735" width="46" height="245" rx="5" fill="#e69f00" opacity="0.82"/>
        <text x="152" y="1006" text-anchor="middle" class="small">0</text><rect x="249" y="833.4434389140272" width="46" height="146.55656108597282" rx="5" fill="#e69f00" opacity="0.82"/>
        <text x="272" y="1006" text-anchor="middle" class="small">1%</text><rect x="369" y="911.0452488687783" width="46" height="68.95475113122166" rx="5" fill="#e69f00" opacity="0.82"/>
        <text x="392" y="1006" text-anchor="middle" class="small">3%</text><rect x="489" y="940.5339366515838" width="46" height="39.46606334841624" rx="5" fill="#e69f00" opacity="0.82"/>
        <text x="512" y="1006" text-anchor="middle" class="small">5%</text><rect x="609" y="964.0361990950227" width="46" height="15.963800904977347" rx="5" fill="#e69f00" opacity="0.82"/>
        <text x="632" y="1006" text-anchor="middle" class="small">10%</text><path d="M 152 745.7627944599427 L 272 748.4754507354625 L 392 782.3040045297253 L 512 841.5078866466536 L 632 990.231119033937" fill="none" stroke="#009e73" stroke-width="3.5"/><circle cx="152" cy="745.7627944599427" r="5.5" fill="#009e73" stroke="#fff" stroke-width="2"/><circle cx="272" cy="748.4754507354625" r="5.5" fill="#009e73" stroke="#fff" stroke-width="2"/><circle cx="392" cy="782.3040045297253" r="5.5" fill="#009e73" stroke="#fff" stroke-width="2"/><circle cx="512" cy="841.5078866466536" r="5.5" fill="#009e73" stroke="#fff" stroke-width="2"/><circle cx="632" cy="990.231119033937" r="5.5" fill="#009e73" stroke="#fff" stroke-width="2"/><text x="100" y="750" class="small strong" fill="#e69f00">active</text><text x="650" y="750" class="small strong" fill="#009e73">cosine</text><text x="392" y="1042" text-anchor="middle" class="axis-title">Relative exposure cutoff</text>
  <rect x="790" y="655" width="640" height="410" rx="10" fill="#ffffff" stroke="#e4e9ef"/>
    <circle cx="824" cy="689" r="18" fill="#16212f"/><text x="824" y="696" text-anchor="middle" class="white" font-size="17" font-weight="700">D</text>
    <text x="854" y="695" class="label strong">Rank-6 NMF diagnostics and profiles</text><path d="M 865 737 L 922.5 786.3808820245765 L 980 852.4954847785588 L 1037.5 899.0609429293345 L 1095 917" fill="none" stroke="#6f4aa2" stroke-width="3.5"/><circle cx="865" cy="737" r="5" fill="#fff" stroke="#6f4aa2" stroke-width="2"/><text x="865" y="944" text-anchor="middle" class="small">2</text><circle cx="922.5" cy="786.3808820245765" r="5" fill="#fff" stroke="#6f4aa2" stroke-width="2"/><text x="922.5" y="944" text-anchor="middle" class="small">3</text><circle cx="980" cy="852.4954847785588" r="5" fill="#fff" stroke="#6f4aa2" stroke-width="2"/><text x="980" y="944" text-anchor="middle" class="small">4</text><circle cx="1037.5" cy="899.0609429293345" r="5" fill="#fff" stroke="#6f4aa2" stroke-width="2"/><text x="1037.5" y="944" text-anchor="middle" class="small">5</text><circle cx="1095" cy="917" r="7" fill="#6f4aa2" stroke="#6f4aa2" stroke-width="2"/><text x="1095" y="944" text-anchor="middle" class="small">6</text><text x="980" y="975" text-anchor="middle" class="axis-title">NMF rank</text><text x="865" y="713" class="small">Error 2612.4-7724.1</text><text x="1132" y="724" class="small strong">NMF1</text><rect x="1132" y="733" width="105" height="55" fill="#ffffff" stroke="#e4e9ef"/><rect x="1132" y="733" width="0.69375" height="55" fill="#0072b2"/><rect x="1133.09375" y="760.8628574989275" width="0.69375" height="27.137142501072464" fill="#0072b2"/><rect x="1134.1875" y="778.231510655221" width="0.69375" height="9.768489344778992" fill="#0072b2"/><rect x="1135.28125" y="753.8279814175088" width="0.69375" height="34.17201858249125" fill="#0072b2"/><rect x="1136.375" y="754.0556052914338" width="0.69375" height="33.944394708566165" fill="#e69f00"/><rect x="1137.46875" y="773.9280580542664" width="0.69375" height="14.071941945733501" fill="#e69f00"/><rect x="1138.5625" y="782.1810008061809" width="0.69375" height="5.818999193819068" fill="#e69f00"/><rect x="1139.65625" y="765.6536385722757" width="0.69375" height="22.346361427724283" fill="#e69f00"/><rect x="1140.75" y="752.6360986400036" width="0.69375" height="35.36390135999631" fill="#009e73"/><rect x="1141.84375" y="772.1942397214898" width="0.69375" height="15.805760278510187" fill="#009e73"/><rect x="1142.9375" y="771.7050398663763" width="0.69375" height="16.294960133623736" fill="#009e73"/><rect x="1144.03125" y="762.3631688703426" width="0.69375" height="25.636831129657423" fill="#009e73"/><rect x="1145.125" y="773.4683521738885" width="0.69375" height="14.531647826111444" fill="#d55e00"/><rect x="1146.21875" y="782.0278733892652" width="0.69375" height="5.972126610734796" fill="#d55e00"/><rect x="1147.3125" y="773.5313684423057" width="0.69375" height="14.468631557694227" fill="#d55e00"/><rect x="1148.40625" y="775.8442658117591" width="0.69375" height="12.155734188240887" fill="#d55e00"/><rect x="1149.5" y="733.2691848016783" width="0.69375" height="54.73081519832172" fill="#6f4aa2"/><rect x="1150.59375" y="778.5796455846048" width="0.69375" height="9.420354415395224" fill="#6f4aa2"/><rect x="1151.6875" y="749.3593541451438" width="0.69375" height="38.64064585485623" fill="#6f4aa2"/><rect x="1152.78125" y="758.8918510408137" width="0.69375" height="29.10814895918631" fill="#6f4aa2"/><rect x="1153.875" y="781.7286167942157" width="0.69375" height="6.271383205784325" fill="#56b4e9"/><rect x="1154.96875" y="786.4942673068454" width="0.69375" height="1.5057326931546404" fill="#56b4e9"/><rect x="1156.0625" y="784.2579586260126" width="0.69375" height="3.7420413739874197" fill="#56b4e9"/><rect x="1157.15625" y="787.9999998681659" width="0.69375" height="1.3183410685892564e-7" fill="#56b4e9"/><rect x="1158.25" y="733.0658926211414" width="0.69375" height="54.934107378858585" fill="#0072b2"/><rect x="1159.34375" y="759.9652535918333" width="0.69375" height="28.034746408166743" fill="#0072b2"/><rect x="1160.4375" y="780.9471609585004" width="0.69375" height="7.052839041499677" fill="#0072b2"/><rect x="1161.53125" y="765.8338762445225" width="0.69375" height="22.16612375547756" fill="#0072b2"/><rect x="1162.625" y="764.6937733424498" width="0.69375" height="23.306226657550148" fill="#e69f00"/><rect x="1163.71875" y="772.7728876663274" width="0.69375" height="15.227112333672594" fill="#e69f00"/><rect x="1164.8125" y="781.4598758362171" width="0.69375" height="6.540124163782941" fill="#e69f00"/><rect x="1165.90625" y="767.9166137248163" width="0.69375" height="20.083386275183653" fill="#e69f00"/><rect x="1167" y="740.4420240810036" width="0.69375" height="47.55797591899634" fill="#009e73"/><rect x="1168.09375" y="752.9810909443506" width="0.69375" height="35.01890905564934" fill="#009e73"/><rect x="1169.1875" y="770.8963208858864" width="0.69375" height="17.103679114113536" fill="#009e73"/><rect x="1170.28125" y="734.0005436870216" width="0.69375" height="53.999456312978374" fill="#009e73"/><rect x="1171.375" y="766.7965359905388" width="0.69375" height="21.203464009461236" fill="#d55e00"/><rect x="1172.46875" y="775.417042786711" width="0.69375" height="12.582957213288982" fill="#d55e00"/><rect x="1173.5625" y="762.0275272865125" width="0.69375" height="25.972472713487534" fill="#d55e00"/><rect x="1174.65625" y="769.5999314402485" width="0.69375" height="18.400068559751467" fill="#d55e00"/><rect x="1175.75" y="759.0167518193024" width="0.69375" height="28.98324818069756" fill="#6f4aa2"/><rect x="1176.84375" y="778.9125362152697" width="0.69375" height="9.08746378473032" fill="#6f4aa2"/><rect x="1177.9375" y="762.5326743664973" width="0.69375" height="25.46732563350271" fill="#6f4aa2"/><rect x="1179.03125" y="772.8341562497369" width="0.69375" height="15.165843750263075" fill="#6f4aa2"/><rect x="1180.125" y="783.0681322126517" width="0.69375" height="4.931867787348326" fill="#56b4e9"/><rect x="1181.21875" y="785.058559112401" width="0.69375" height="2.9414408875990654" fill="#56b4e9"/><rect x="1182.3125" y="781.1796990659557" width="0.69375" height="6.820300934044277" fill="#56b4e9"/><rect x="1183.40625" y="788" width="0.69375" height="9.80792490167479e-24" fill="#56b4e9"/><rect x="1184.5" y="754.145358404701" width="0.69375" height="33.854641595298986" fill="#0072b2"/><rect x="1185.59375" y="762.3477424210513" width="0.69375" height="25.652257578948728" fill="#0072b2"/><rect x="1186.6875" y="779.3612116672097" width="0.69375" height="8.638788332790385" fill="#0072b2"/><rect x="1187.78125" y="761.4379198325208" width="0.69375" height="26.562080167479113" fill="#0072b2"/><rect x="1188.875" y="767.8153256708341" width="0.69375" height="20.184674329165937" fill="#e69f00"/><rect x="1189.96875" y="774.8698725318619" width="0.69375" height="13.130127468138063" fill="#e69f00"/><rect x="1191.0625" y="782.6855890192095" width="0.69375" height="5.314410980790529" fill="#e69f00"/><rect x="1192.15625" y="773.2911164683375" width="0.69375" height="14.708883531662526" fill="#e69f00"/><rect x="1193.25" y="761.531243574206" width="0.69375" height="26.46875642579405" fill="#009e73"/><rect x="1194.34375" y="770.5666843007097" width="0.69375" height="17.433315699290304" fill="#009e73"/><rect x="1195.4375" y="774.299790793928" width="0.69375" height="13.700209206072087" fill="#009e73"/><rect x="1196.53125" y="765.9838518910086" width="0.69375" height="22.016148108991416" fill="#009e73"/><rect x="1197.625" y="774.8722526736212" width="0.69375" height="13.1277473263788" fill="#d55e00"/><rect x="1198.71875" y="783.061618446607" width="0.69375" height="4.938381553393024" fill="#d55e00"/><rect x="1199.8125" y="770.0207472342177" width="0.69375" height="17.979252765782363" fill="#d55e00"/><rect x="1200.90625" y="777.6050476354571" width="0.69375" height="10.39495236454284" fill="#d55e00"/><rect x="1202" y="761.6920349394817" width="0.69375" height="26.307965060518324" fill="#6f4aa2"/><rect x="1203.09375" y="782.9466642729466" width="0.69375" height="5.053335727053389" fill="#6f4aa2"/><rect x="1204.1875" y="769.65972834677" width="0.69375" height="18.340271653230086" fill="#6f4aa2"/><rect x="1205.28125" y="770.5721264599324" width="0.69375" height="17.427873540067537" fill="#6f4aa2"/><rect x="1206.375" y="784.0848221462501" width="0.69375" height="3.9151778537499764" fill="#56b4e9"/><rect x="1207.46875" y="786.782522342504" width="0.69375" height="1.2174776574960469" fill="#56b4e9"/><rect x="1208.5625" y="783.5957020129745" width="0.69375" height="4.40429798702552" fill="#56b4e9"/><rect x="1209.65625" y="787.9968194912747" width="0.69375" height="0.0031805087253439068" fill="#56b4e9"/><rect x="1210.75" y="757.8197424786226" width="0.69375" height="30.18025752137735" fill="#0072b2"/><rect x="1211.84375" y="757.0756470228031" width="0.69375" height="30.92435297719693" fill="#0072b2"/><rect x="1212.9375" y="782.6994783925661" width="0.69375" height="5.300521607433857" fill="#0072b2"/><rect x="1214.03125" y="760.050248118529" width="0.69375" height="27.94975188147105" fill="#0072b2"/><rect x="1215.125" y="787.9875340010226" width="0.69375" height="0.012465998977428644" fill="#e69f00"/><rect x="1216.21875" y="770.3169051771706" width="0.69375" height="17.683094822829396" fill="#e69f00"/><rect x="1217.3125" y="784.6188503553742" width="0.69375" height="3.3811496446258205" fill="#e69f00"/><rect x="1218.40625" y="779.1508057398288" width="0.69375" height="8.849194260171211" fill="#e69f00"/><rect x="1219.5" y="766.4030021940813" width="0.69375" height="21.596997805918758" fill="#009e73"/><rect x="1220.59375" y="752.7209167458107" width="0.69375" height="35.27908325418937" fill="#009e73"/><rect x="1221.6875" y="779.5170572638727" width="0.69375" height="8.482942736127304" fill="#009e73"/><rect x="1222.78125" y="752.4831794751728" width="0.69375" height="35.51682052482712" fill="#009e73"/><rect x="1223.875" y="772.1466226587621" width="0.69375" height="15.853377341237836" fill="#d55e00"/><rect x="1224.96875" y="782.1852015934563" width="0.69375" height="5.81479840654363" fill="#d55e00"/><rect x="1226.0625" y="777.2877509633283" width="0.69375" height="10.712249036671718" fill="#d55e00"/><rect x="1227.15625" y="773.8976476871914" width="0.69375" height="14.102352312808641" fill="#d55e00"/><rect x="1228.25" y="760.0293749558235" width="0.69375" height="27.97062504417651" fill="#6f4aa2"/><rect x="1229.34375" y="780.9547182763616" width="0.69375" height="7.045281723638361" fill="#6f4aa2"/><rect x="1230.4375" y="772.9939396400728" width="0.69375" height="15.006060359927249" fill="#6f4aa2"/><rect x="1231.53125" y="769.6149342148954" width="0.69375" height="18.385065785104622" fill="#6f4aa2"/><rect x="1232.625" y="780.7680325604719" width="0.69375" height="7.23196743952813" fill="#56b4e9"/><rect x="1233.71875" y="785.0518933808895" width="0.69375" height="2.948106619110444" fill="#56b4e9"/><rect x="1234.8125" y="779.3911827176069" width="0.69375" height="8.608817282393114" fill="#56b4e9"/><rect x="1235.90625" y="787.9805436865136" width="0.69375" height="0.01945631348642604" fill="#56b4e9"/><text x="1258" y="724" class="small strong">NMF2</text><rect x="1258" y="733" width="105" height="55" fill="#ffffff" stroke="#e4e9ef"/><rect x="1258" y="783.3068549959597" width="0.69375" height="4.693145004040291" fill="#0072b2"/><rect x="1259.09375" y="785.5591092608763" width="0.69375" height="2.440890739123658" fill="#0072b2"/><rect x="1260.1875" y="786.9930498966906" width="0.69375" height="1.0069501033093904" fill="#0072b2"/><rect x="1261.28125" y="785.230833498249" width="0.69375" height="2.7691665017509965" fill="#0072b2"/><rect x="1262.375" y="786.4553240005993" width="0.69375" height="1.544675999400783" fill="#e69f00"/><rect x="1263.46875" y="787.2240004383342" width="0.69375" height="0.7759995616658497" fill="#e69f00"/><rect x="1264.5625" y="787.84487371564" width="0.69375" height="0.15512628436001197" fill="#e69f00"/><rect x="1265.65625" y="787.0229303495552" width="0.69375" height="0.9770696504448171" fill="#e69f00"/><rect x="1266.75" y="785.5194302333738" width="0.69375" height="2.4805697666262465" fill="#009e73"/><rect x="1267.84375" y="786.5930619334105" width="0.69375" height="1.4069380665895557" fill="#009e73"/><rect x="1268.9375" y="786.0506689447622" width="0.69375" height="1.9493310552378957" fill="#009e73"/><rect x="1270.03125" y="786.7698420697014" width="0.69375" height="1.2301579302985433" fill="#009e73"/><rect x="1271.125" y="787.1005830735114" width="0.69375" height="0.8994169264886346" fill="#d55e00"/><rect x="1272.21875" y="787.0783992298145" width="0.69375" height="0.9216007701854291" fill="#d55e00"/><rect x="1273.3125" y="787.2272841214557" width="0.69375" height="0.7727158785443021" fill="#d55e00"/><rect x="1274.40625" y="785.7364790971419" width="0.69375" height="2.2635209028581373" fill="#d55e00"/><rect x="1275.5" y="785.0740358207313" width="0.69375" height="2.9259641792686604" fill="#6f4aa2"/><rect x="1276.59375" y="786.4800445140913" width="0.69375" height="1.5199554859086208" fill="#6f4aa2"/><rect x="1277.6875" y="786.00498106323" width="0.69375" height="1.9950189367699838" fill="#6f4aa2"/><rect x="1278.78125" y="785.339058639332" width="0.69375" height="2.660941360667938" fill="#6f4aa2"/><rect x="1279.875" y="787.3451482169727" width="0.69375" height="0.6548517830273461" fill="#56b4e9"/><rect x="1280.96875" y="786.3021883737841" width="0.69375" height="1.697811626215874" fill="#56b4e9"/><rect x="1282.0625" y="787.2425038595268" width="0.69375" height="0.7574961404732299" fill="#56b4e9"/><rect x="1283.15625" y="772.3716550520018" width="0.69375" height="15.628344947998258" fill="#56b4e9"/><rect x="1284.25" y="784.1333453108265" width="0.69375" height="3.866654689173502" fill="#0072b2"/><rect x="1285.34375" y="786.6980064576544" width="0.69375" height="1.301993542345655" fill="#0072b2"/><rect x="1286.4375" y="787.5072592654835" width="0.69375" height="0.4927407345164561" fill="#0072b2"/><rect x="1287.53125" y="787.3399765806126" width="0.69375" height="0.6600234193873544" fill="#0072b2"/><rect x="1288.625" y="787.3533095059638" width="0.69375" height="0.6466904940362365" fill="#e69f00"/><rect x="1289.71875" y="787.5050363996646" width="0.69375" height="0.4949636003353624" fill="#e69f00"/><rect x="1290.8125" y="787.7269113676443" width="0.69375" height="0.27308863235568775" fill="#e69f00"/><rect x="1291.90625" y="787.4669859038721" width="0.69375" height="0.5330140961278881" fill="#e69f00"/><rect x="1293" y="785.434145393355" width="0.69375" height="2.5658546066449293" fill="#009e73"/><rect x="1294.09375" y="785.7037439241875" width="0.69375" height="2.2962560758124484" fill="#009e73"/><rect x="1295.1875" y="785.8752559472354" width="0.69375" height="2.1247440527646573" fill="#009e73"/><rect x="1296.28125" y="786.2879640102417" width="0.69375" height="1.7120359897582649" fill="#009e73"/><rect x="1297.375" y="787.3667659236828" width="0.69375" height="0.6332340763171651" fill="#d55e00"/><rect x="1298.46875" y="785.3609275255501" width="0.69375" height="2.639072474449886" fill="#d55e00"/><rect x="1299.5625" y="786.5428387394495" width="0.69375" height="1.4571612605504474" fill="#d55e00"/><rect x="1300.65625" y="781.6247058127568" width="0.69375" height="6.3752941872432025" fill="#d55e00"/><rect x="1301.75" y="785.3656319241842" width="0.69375" height="2.634368075815771" fill="#6f4aa2"/><rect x="1302.84375" y="778.4595548595571" width="0.69375" height="9.540445140442895" fill="#6f4aa2"/><rect x="1303.9375" y="781.044881400122" width="0.69375" height="6.955118599877963" fill="#6f4aa2"/><rect x="1305.03125" y="764.6483048979916" width="0.69375" height="23.3516951020084" fill="#6f4aa2"/><rect x="1306.125" y="786.9995681738679" width="0.69375" height="1.0004318261320437" fill="#56b4e9"/><rect x="1307.21875" y="783.5820440000964" width="0.69375" height="4.417955999903641" fill="#56b4e9"/><rect x="1308.3125" y="785.2894922382098" width="0.69375" height="2.7105077617901765" fill="#56b4e9"/><rect x="1309.40625" y="733" width="0.69375" height="55" fill="#56b4e9"/><rect x="1310.5" y="784.6732403128717" width="0.69375" height="3.3267596871283165" fill="#0072b2"/><rect x="1311.59375" y="786.0611780769765" width="0.69375" height="1.9388219230235146" fill="#0072b2"/><rect x="1312.6875" y="786.8907791023979" width="0.69375" height="1.1092208976020372" fill="#0072b2"/><rect x="1313.78125" y="786.0536712025557" width="0.69375" height="1.9463287974442438" fill="#0072b2"/><rect x="1314.875" y="787.2896518150428" width="0.69375" height="0.7103481849572338" fill="#e69f00"/><rect x="1315.96875" y="787.5709563778606" width="0.69375" height="0.42904362213936564" fill="#e69f00"/><rect x="1317.0625" y="787.6071852980302" width="0.69375" height="0.39281470196975077" fill="#e69f00"/><rect x="1318.15625" y="787.444682276347" width="0.69375" height="0.5553177236530821" fill="#e69f00"/><rect x="1319.25" y="786.4421933325605" width="0.69375" height="1.5578066674395423" fill="#009e73"/><rect x="1320.34375" y="786.1868076541588" width="0.69375" height="1.8131923458411918" fill="#009e73"/><rect x="1321.4375" y="786.6280311696399" width="0.69375" height="1.3719688303600899" fill="#009e73"/><rect x="1322.53125" y="786.3462045278412" width="0.69375" height="1.6537954721588288" fill="#009e73"/><rect x="1323.625" y="787.6191287517858" width="0.69375" height="0.3808712482142793" fill="#d55e00"/><rect x="1324.71875" y="786.8389066882756" width="0.69375" height="1.1610933117243838" fill="#d55e00"/><rect x="1325.8125" y="787.4543772254153" width="0.69375" height="0.5456227745846381" fill="#d55e00"/><rect x="1326.90625" y="786.3301509300907" width="0.69375" height="1.6698490699093032" fill="#d55e00"/><rect x="1328" y="786.4060834853223" width="0.69375" height="1.59391651467777" fill="#6f4aa2"/><rect x="1329.09375" y="786.3515724389138" width="0.69375" height="1.6484275610862364" fill="#6f4aa2"/><rect x="1330.1875" y="786.2761690894109" width="0.69375" height="1.7238309105891017" fill="#6f4aa2"/><rect x="1331.28125" y="785.206428012416" width="0.69375" height="2.793571987583938" fill="#6f4aa2"/><rect x="1332.375" y="787.6427894002014" width="0.69375" height="0.3572105997986093" fill="#56b4e9"/><rect x="1333.46875" y="786.8675968896473" width="0.69375" height="1.1324031103527168" fill="#56b4e9"/><rect x="1334.5625" y="787.2477110584451" width="0.69375" height="0.7522889415548395" fill="#56b4e9"/><rect x="1335.65625" y="773.4086651565012" width="0.69375" height="14.591334843498743" fill="#56b4e9"/><rect x="1336.75" y="784.2405420024488" width="0.69375" height="3.7594579975511273" fill="#0072b2"/><rect x="1337.84375" y="785.5991948336656" width="0.69375" height="2.4008051663343526" fill="#0072b2"/><rect x="1338.9375" y="787.3434853293448" width="0.69375" height="0.6565146706551399" fill="#0072b2"/><rect x="1340.03125" y="784.755928611484" width="0.69375" height="3.2440713885159256" fill="#0072b2"/><rect x="1341.125" y="784.9822142210031" width="0.69375" height="3.0177857789969136" fill="#e69f00"/><rect x="1342.21875" y="787.8518347278617" width="0.69375" height="0.14816527213830827" fill="#e69f00"/><rect x="1343.3125" y="787.3577370129121" width="0.69375" height="0.6422629870879049" fill="#e69f00"/><rect x="1344.40625" y="783.9858434313687" width="0.69375" height="4.014156568631323" fill="#e69f00"/><rect x="1345.5" y="780.398092326019" width="0.69375" height="7.601907673981013" fill="#009e73"/><rect x="1346.59375" y="784.7459103264987" width="0.69375" height="3.254089673501297" fill="#009e73"/><rect x="1347.6875" y="784.9849780367392" width="0.69375" height="3.015021963260811" fill="#009e73"/><rect x="1348.78125" y="782.9161445394255" width="0.69375" height="5.083855460574508" fill="#009e73"/><rect x="1349.875" y="787.0363660475377" width="0.69375" height="0.9636339524622699" fill="#d55e00"/><rect x="1350.96875" y="786.8540374862197" width="0.69375" height="1.1459625137802776" fill="#d55e00"/><rect x="1352.0625" y="787.3225591743989" width="0.69375" height="0.6774408256011595" fill="#d55e00"/><rect x="1353.15625" y="784.3024499653424" width="0.69375" height="3.6975500346576666" fill="#d55e00"/><rect x="1354.25" y="785.5211818079184" width="0.69375" height="2.478818192081528" fill="#6f4aa2"/><rect x="1355.34375" y="784.1292824491143" width="0.69375" height="3.87071755088576" fill="#6f4aa2"/><rect x="1356.4375" y="786.0206099290432" width="0.69375" height="1.9793900709567682" fill="#6f4aa2"/><rect x="1357.53125" y="783.0980797157104" width="0.69375" height="4.901920284289626" fill="#6f4aa2"/><rect x="1358.625" y="786.9468135901866" width="0.69375" height="1.0531864098134607" fill="#56b4e9"/><rect x="1359.71875" y="784.7763761223487" width="0.69375" height="3.223623877651337" fill="#56b4e9"/><rect x="1360.8125" y="786.4685235585496" width="0.69375" height="1.5314764414504078" fill="#56b4e9"/><rect x="1361.90625" y="754.9812936190074" width="0.69375" height="33.01870638099266" fill="#56b4e9"/><text x="1132" y="818" class="small strong">NMF3</text><rect x="1132" y="827" width="105" height="55" fill="#ffffff" stroke="#e4e9ef"/><rect x="1132" y="871.4273119277827" width="0.69375" height="10.572688072217233" fill="#0072b2"/><rect x="1133.09375" y="878.0423711201" width="0.69375" height="3.9576288798999446" fill="#0072b2"/><rect x="1134.1875" y="881.325622409514" width="0.69375" height="0.6743775904859048" fill="#0072b2"/><rect x="1135.28125" y="875.8644424833647" width="0.69375" height="6.135557516635345" fill="#0072b2"/><rect x="1136.375" y="878.1665040251573" width="0.69375" height="3.8334959748426964" fill="#e69f00"/><rect x="1137.46875" y="880.4896291320201" width="0.69375" height="1.5103708679798753" fill="#e69f00"/><rect x="1138.5625" y="881.3478503102793" width="0.69375" height="0.6521496897206068" fill="#e69f00"/><rect x="1139.65625" y="878.9794310769789" width="0.69375" height="3.0205689230210333" fill="#e69f00"/><rect x="1140.75" y="876.3718698784694" width="0.69375" height="5.628130121530588" fill="#009e73"/><rect x="1141.84375" y="880.9597821997871" width="0.69375" height="1.0402178002128573" fill="#009e73"/><rect x="1142.9375" y="881.9537105608545" width="0.69375" height="0.0462894391455771" fill="#009e73"/><rect x="1144.03125" y="876.4528839419393" width="0.69375" height="5.547116058060786" fill="#009e73"/><rect x="1145.125" y="879.2210247359673" width="0.69375" height="2.778975264032734" fill="#d55e00"/><rect x="1146.21875" y="881.6799658886866" width="0.69375" height="0.3200341113133714" fill="#d55e00"/><rect x="1147.3125" y="880.4167048574483" width="0.69375" height="1.5832951425516812" fill="#d55e00"/><rect x="1148.40625" y="879.8621613038221" width="0.69375" height="2.1378386961779445" fill="#d55e00"/><rect x="1149.5" y="871.215981294852" width="0.69375" height="10.784018705147968" fill="#6f4aa2"/><rect x="1150.59375" y="880.2528460047662" width="0.69375" height="1.7471539952337987" fill="#6f4aa2"/><rect x="1151.6875" y="876.271674360923" width="0.69375" height="5.728325639076982" fill="#6f4aa2"/><rect x="1152.78125" y="878.9815510476462" width="0.69375" height="3.018448952353804" fill="#6f4aa2"/><rect x="1153.875" y="881.698151051999" width="0.69375" height="0.301848948000932" fill="#56b4e9"/><rect x="1154.96875" y="881.4927476359182" width="0.69375" height="0.5072523640817987" fill="#56b4e9"/><rect x="1156.0625" y="881.2467175896588" width="0.69375" height="0.7532824103411413" fill="#56b4e9"/><rect x="1157.15625" y="881.5934115038516" width="0.69375" height="0.40658849614837717" fill="#56b4e9"/><rect x="1158.25" y="876.8708996139904" width="0.69375" height="5.129100386009592" fill="#0072b2"/><rect x="1159.34375" y="879.3892477704978" width="0.69375" height="2.6107522295021357" fill="#0072b2"/><rect x="1160.4375" y="881.987083304158" width="0.69375" height="0.012916695842032198" fill="#0072b2"/><rect x="1161.53125" y="876.4647486601167" width="0.69375" height="5.53525133988329" fill="#0072b2"/><rect x="1162.625" y="880.5974602771801" width="0.69375" height="1.4025397228199197" fill="#e69f00"/><rect x="1163.71875" y="881.4070490562582" width="0.69375" height="0.5929509437418211" fill="#e69f00"/><rect x="1164.8125" y="881.6316078040155" width="0.69375" height="0.36839219598449396" fill="#e69f00"/><rect x="1165.90625" y="877.8153177669188" width="0.69375" height="4.184682233081175" fill="#e69f00"/><rect x="1167" y="878.8235486231448" width="0.69375" height="3.1764513768551543" fill="#009e73"/><rect x="1168.09375" y="880.3223834775829" width="0.69375" height="1.6776165224171493" fill="#009e73"/><rect x="1169.1875" y="881.99992928477" width="0.69375" height="0.00007071522992483165" fill="#009e73"/><rect x="1170.28125" y="875.7030176440487" width="0.69375" height="6.296982355951339" fill="#009e73"/><rect x="1171.375" y="880.3882346122473" width="0.69375" height="1.611765387752716" fill="#d55e00"/><rect x="1172.46875" y="881.6127749339083" width="0.69375" height="0.3872250660916452" fill="#d55e00"/><rect x="1173.5625" y="881.9086985006887" width="0.69375" height="0.0913014993112978" fill="#d55e00"/><rect x="1174.65625" y="881.368521419744" width="0.69375" height="0.6314785802559987" fill="#d55e00"/><rect x="1175.75" y="877.3055599458685" width="0.69375" height="4.694440054131516" fill="#6f4aa2"/><rect x="1176.84375" y="880.9268504363579" width="0.69375" height="1.0731495636420691" fill="#6f4aa2"/><rect x="1177.9375" y="880.1881010700905" width="0.69375" height="1.8118989299094943" fill="#6f4aa2"/><rect x="1179.03125" y="880.8362861205114" width="0.69375" height="1.163713879488602" fill="#6f4aa2"/><rect x="1180.125" y="881.8784809976001" width="0.69375" height="0.12151900239983654" fill="#56b4e9"/><rect x="1181.21875" y="881.7791719919622" width="0.69375" height="0.2208280080377717" fill="#56b4e9"/><rect x="1182.3125" y="880.6190700104199" width="0.69375" height="1.3809299895800755" fill="#56b4e9"/><rect x="1183.40625" y="882" width="0.69375" height="2.474685158646639e-30" fill="#56b4e9"/><rect x="1184.5" y="878.0553570052829" width="0.69375" height="3.944642994717176" fill="#0072b2"/><rect x="1185.59375" y="881.9478919313797" width="0.69375" height="0.052108068620378145" fill="#0072b2"/><rect x="1186.6875" y="881.624071529733" width="0.69375" height="0.3759284702670163" fill="#0072b2"/><rect x="1187.78125" y="880.1004173364865" width="0.69375" height="1.8995826635134654" fill="#0072b2"/><rect x="1188.875" y="881.3651223976993" width="0.69375" height="0.6348776023006414" fill="#e69f00"/><rect x="1189.96875" y="880.6951808370944" width="0.69375" height="1.304819162905623" fill="#e69f00"/><rect x="1191.0625" y="881.9635807252663" width="0.69375" height="0.03641927473366791" fill="#e69f00"/><rect x="1192.15625" y="880.7649640766111" width="0.69375" height="1.2350359233889165" fill="#e69f00"/><rect x="1193.25" y="879.3045788869642" width="0.69375" height="2.695421113035815" fill="#009e73"/><rect x="1194.34375" y="881.0486571339193" width="0.69375" height="0.9513428660807491" fill="#009e73"/><rect x="1195.4375" y="881.9999573501431" width="0.69375" height="0.000042649856890089976" fill="#009e73"/><rect x="1196.53125" y="879.1028538167091" width="0.69375" height="2.897146183290926" fill="#009e73"/><rect x="1197.625" y="879.3714462705948" width="0.69375" height="2.6285537294052532" fill="#d55e00"/><rect x="1198.71875" y="881.9451825221929" width="0.69375" height="0.054817477807120644" fill="#d55e00"/><rect x="1199.8125" y="881.4316087846361" width="0.69375" height="0.5683912153639671" fill="#d55e00"/><rect x="1200.90625" y="881.0676884875251" width="0.69375" height="0.9323115124749529" fill="#d55e00"/><rect x="1202" y="876.7244516869966" width="0.69375" height="5.275548313003353" fill="#6f4aa2"/><rect x="1203.09375" y="880.4656840899469" width="0.69375" height="1.5343159100530983" fill="#6f4aa2"/><rect x="1204.1875" y="879.1078279429947" width="0.69375" height="2.892172057005297" fill="#6f4aa2"/><rect x="1205.28125" y="879.3189829134932" width="0.69375" height="2.6810170865068237" fill="#6f4aa2"/><rect x="1206.375" y="881.6842144627161" width="0.69375" height="0.3157855372838452" fill="#56b4e9"/><rect x="1207.46875" y="881.8099482726066" width="0.69375" height="0.1900517273934527" fill="#56b4e9"/><rect x="1208.5625" y="881.5862886706831" width="0.69375" height="0.4137113293169265" fill="#56b4e9"/><rect x="1209.65625" y="881.9999907958334" width="0.69375" height="0.000009204166643397739" fill="#56b4e9"/><rect x="1210.75" y="868.8100282708128" width="0.69375" height="13.189971729187167" fill="#0072b2"/><rect x="1211.84375" y="877.5930341908788" width="0.69375" height="4.406965809121125" fill="#0072b2"/><rect x="1212.9375" y="881.7367236182826" width="0.69375" height="0.26327638171740747" fill="#0072b2"/><rect x="1214.03125" y="870.3216461588573" width="0.69375" height="11.678353841142684" fill="#0072b2"/><rect x="1215.125" y="830.7121984993312" width="0.69375" height="51.28780150066885" fill="#e69f00"/><rect x="1216.21875" y="869.1390169714235" width="0.69375" height="12.860983028576435" fill="#e69f00"/><rect x="1217.3125" y="880.2225961664426" width="0.69375" height="1.777403833557368" fill="#e69f00"/><rect x="1218.40625" y="827" width="0.69375" height="55" fill="#e69f00"/><rect x="1219.5" y="869.447742300748" width="0.69375" height="12.55225769925193" fill="#009e73"/><rect x="1220.59375" y="879.4649295542827" width="0.69375" height="2.535070445717347" fill="#009e73"/><rect x="1221.6875" y="881.7759655615706" width="0.69375" height="0.22403443842934062" fill="#009e73"/><rect x="1222.78125" y="874.3929087733146" width="0.69375" height="7.6070912266853785" fill="#009e73"/><rect x="1223.875" y="879.8644215414668" width="0.69375" height="2.1355784585333013" fill="#d55e00"/><rect x="1224.96875" y="881.1121976568718" width="0.69375" height="0.8878023431281767" fill="#d55e00"/><rect x="1226.0625" y="880.608167815889" width="0.69375" height="1.3918321841110035" fill="#d55e00"/><rect x="1227.15625" y="880.3271670121131" width="0.69375" height="1.6728329878868413" fill="#d55e00"/><rect x="1228.25" y="877.2213100331431" width="0.69375" height="4.778689966856849" fill="#6f4aa2"/><rect x="1229.34375" y="880.0695438545753" width="0.69375" height="1.930456145424707" fill="#6f4aa2"/><rect x="1230.4375" y="879.6031873076646" width="0.69375" height="2.396812692335416" fill="#6f4aa2"/><rect x="1231.53125" y="879.2171642974906" width="0.69375" height="2.7828357025093213" fill="#6f4aa2"/><rect x="1232.625" y="881.1486003065073" width="0.69375" height="0.851399693492725" fill="#56b4e9"/><rect x="1233.71875" y="881.7390988143393" width="0.69375" height="0.2609011856606614" fill="#56b4e9"/><rect x="1234.8125" y="881.838122006256" width="0.69375" height="0.16187799374403325" fill="#56b4e9"/><rect x="1235.90625" y="880.166818102675" width="0.69375" height="1.8331818973249026" fill="#56b4e9"/><text x="1258" y="818" class="small strong">NMF4</text><rect x="1258" y="827" width="105" height="55" fill="#ffffff" stroke="#e4e9ef"/><rect x="1258" y="873.184930690706" width="0.69375" height="8.815069309294056" fill="#0072b2"/><rect x="1259.09375" y="870.2551168816067" width="0.69375" height="11.744883118393277" fill="#0072b2"/><rect x="1260.1875" y="876.5529097126059" width="0.69375" height="5.447090287394119" fill="#0072b2"/><rect x="1261.28125" y="876.2360654071886" width="0.69375" height="5.763934592811492" fill="#0072b2"/><rect x="1262.375" y="881.9283831288258" width="0.69375" height="0.07161687117418337" fill="#e69f00"/><rect x="1263.46875" y="881.4063904289058" width="0.69375" height="0.5936095710942185" fill="#e69f00"/><rect x="1264.5625" y="880.7795375547303" width="0.69375" height="1.2204624452697275" fill="#e69f00"/><rect x="1265.65625" y="881.9840950910514" width="0.69375" height="0.015904908948631617" fill="#e69f00"/><rect x="1266.75" y="879.1593238699029" width="0.69375" height="2.840676130097131" fill="#009e73"/><rect x="1267.84375" y="879.3647255045651" width="0.69375" height="2.635274495434899" fill="#009e73"/><rect x="1268.9375" y="881.9974968433795" width="0.69375" height="0.002503156620453055" fill="#009e73"/><rect x="1270.03125" y="881.0799021224188" width="0.69375" height="0.9200978775812131" fill="#009e73"/><rect x="1271.125" y="875.1464222678525" width="0.69375" height="6.853577732147533" fill="#d55e00"/><rect x="1272.21875" y="879.6413872841024" width="0.69375" height="2.3586127158976127" fill="#d55e00"/><rect x="1273.3125" y="872.903325547544" width="0.69375" height="9.096674452456003" fill="#d55e00"/><rect x="1274.40625" y="878.4673065269093" width="0.69375" height="3.5326934730907515" fill="#d55e00"/><rect x="1275.5" y="881.333897345631" width="0.69375" height="0.6661026543689936" fill="#6f4aa2"/><rect x="1276.59375" y="881.6300115684838" width="0.69375" height="0.369988431516195" fill="#6f4aa2"/><rect x="1277.6875" y="881.0274524073862" width="0.69375" height="0.9725475926137921" fill="#6f4aa2"/><rect x="1278.78125" y="881.9495056847796" width="0.69375" height="0.050494315220315625" fill="#6f4aa2"/><rect x="1279.875" y="881.7028219067967" width="0.69375" height="0.2971780932033646" fill="#56b4e9"/><rect x="1280.96875" y="881.9996773164017" width="0.69375" height="0.00032268359830501007" fill="#56b4e9"/><rect x="1282.0625" y="879.8174542620491" width="0.69375" height="2.1825457379509423" fill="#56b4e9"/><rect x="1283.15625" y="881.9521063234102" width="0.69375" height="0.04789367658979354" fill="#56b4e9"/><rect x="1284.25" y="836.8154552614749" width="0.69375" height="45.184544738525084" fill="#0072b2"/><rect x="1285.34375" y="828.7128597865237" width="0.69375" height="53.28714021347631" fill="#0072b2"/><rect x="1286.4375" y="866.6500179753696" width="0.69375" height="15.34998202463044" fill="#0072b2"/><rect x="1287.53125" y="827" width="0.69375" height="55" fill="#0072b2"/><rect x="1288.625" y="878.1190122933323" width="0.69375" height="3.880987706667692" fill="#e69f00"/><rect x="1289.71875" y="877.0013177544633" width="0.69375" height="4.9986822455367" fill="#e69f00"/><rect x="1290.8125" y="879.85777299472" width="0.69375" height="2.1422270052800445" fill="#e69f00"/><rect x="1291.90625" y="878.0191766595864" width="0.69375" height="3.9808233404136475" fill="#e69f00"/><rect x="1293" y="877.3641939911412" width="0.69375" height="4.635806008858803" fill="#009e73"/><rect x="1294.09375" y="876.3349728623413" width="0.69375" height="5.665027137658767" fill="#009e73"/><rect x="1295.1875" y="881.4901203363651" width="0.69375" height="0.5098796636348809" fill="#009e73"/><rect x="1296.28125" y="876.0007331365362" width="0.69375" height="5.999266863463878" fill="#009e73"/><rect x="1297.375" y="868.356967832686" width="0.69375" height="13.643032167314031" fill="#d55e00"/><rect x="1298.46875" y="868.964340482867" width="0.69375" height="13.035659517132999" fill="#d55e00"/><rect x="1299.5625" y="847.0283323749609" width="0.69375" height="34.97166762503914" fill="#d55e00"/><rect x="1300.65625" y="870.0231907685726" width="0.69375" height="11.976809231427454" fill="#d55e00"/><rect x="1301.75" y="879.2319138482625" width="0.69375" height="2.7680861517374833" fill="#6f4aa2"/><rect x="1302.84375" y="880.8556014831304" width="0.69375" height="1.1443985168696054" fill="#6f4aa2"/><rect x="1303.9375" y="879.8519523085203" width="0.69375" height="2.1480476914797997" fill="#6f4aa2"/><rect x="1305.03125" y="880.525538103592" width="0.69375" height="1.4744618964079745" fill="#6f4aa2"/><rect x="1306.125" y="881.3700807097092" width="0.69375" height="0.6299192902908031" fill="#56b4e9"/><rect x="1307.21875" y="881.7145556489578" width="0.69375" height="0.28544435104215493" fill="#56b4e9"/><rect x="1308.3125" y="879.0022373200243" width="0.69375" height="2.9977626799757404" fill="#56b4e9"/><rect x="1309.40625" y="882" width="0.69375" height="4.9172636307706506e-17" fill="#56b4e9"/><rect x="1310.5" y="867.886125148793" width="0.69375" height="14.113874851207047" fill="#0072b2"/><rect x="1311.59375" y="863.415969409773" width="0.69375" height="18.58403059022707" fill="#0072b2"/><rect x="1312.6875" y="875.5609755125166" width="0.69375" height="6.439024487483361" fill="#0072b2"/><rect x="1313.78125" y="871.8274333519936" width="0.69375" height="10.172566648006406" fill="#0072b2"/><rect x="1314.875" y="879.9567187525939" width="0.69375" height="2.043281247406044" fill="#e69f00"/><rect x="1315.96875" y="879.8696110293002" width="0.69375" height="2.1303889706997774" fill="#e69f00"/><rect x="1317.0625" y="880.7195196906995" width="0.69375" height="1.2804803093005357" fill="#e69f00"/><rect x="1318.15625" y="880.9757628995144" width="0.69375" height="1.0242371004855713" fill="#e69f00"/><rect x="1319.25" y="879.3401030722326" width="0.69375" height="2.659896927767318" fill="#009e73"/><rect x="1320.34375" y="879.9412307407981" width="0.69375" height="2.0587692592019264" fill="#009e73"/><rect x="1321.4375" y="881.9999981782461" width="0.69375" height="0.000001821753879145429" fill="#009e73"/><rect x="1322.53125" y="881.0471057299853" width="0.69375" height="0.9528942700146765" fill="#009e73"/><rect x="1323.625" y="873.3525923536221" width="0.69375" height="8.647407646377882" fill="#d55e00"/><rect x="1324.71875" y="879.1299624015961" width="0.69375" height="2.8700375984038518" fill="#d55e00"/><rect x="1325.8125" y="869.3694507626361" width="0.69375" height="12.630549237363919" fill="#d55e00"/><rect x="1326.90625" y="877.3665882308164" width="0.69375" height="4.633411769183608" fill="#d55e00"/><rect x="1328" y="881.0715007595253" width="0.69375" height="0.9284992404746889" fill="#6f4aa2"/><rect x="1329.09375" y="881.0728252366064" width="0.69375" height="0.9271747633936135" fill="#6f4aa2"/><rect x="1330.1875" y="881.4206263108941" width="0.69375" height="0.5793736891059074" fill="#6f4aa2"/><rect x="1331.28125" y="881.9999383068103" width="0.69375" height="0.00006169318960968611" fill="#6f4aa2"/><rect x="1332.375" y="881.7371096884972" width="0.69375" height="0.2628903115028397" fill="#56b4e9"/><rect x="1333.46875" y="881.9129673417473" width="0.69375" height="0.08703265825275927" fill="#56b4e9"/><rect x="1334.5625" y="879.0769588740442" width="0.69375" height="2.9230411259557663" fill="#56b4e9"/><rect x="1335.65625" y="881.4469787185465" width="0.69375" height="0.5530212814534865" fill="#56b4e9"/><rect x="1336.75" y="864.328607102687" width="0.69375" height="17.671392897313012" fill="#0072b2"/><rect x="1337.84375" y="857.2290658584229" width="0.69375" height="24.770934141577047" fill="#0072b2"/><rect x="1338.9375" y="877.5252205039907" width="0.69375" height="4.47477949600934" fill="#0072b2"/><rect x="1340.03125" y="855.1735150636532" width="0.69375" height="26.82648493634683" fill="#0072b2"/><rect x="1341.125" y="881.9088393143602" width="0.69375" height="0.09116068563977596" fill="#e69f00"/><rect x="1342.21875" y="879.2013440065098" width="0.69375" height="2.7986559934902475" fill="#e69f00"/><rect x="1343.3125" y="880.9615484339218" width="0.69375" height="1.038451566078182" fill="#e69f00"/><rect x="1344.40625" y="881.8184329141881" width="0.69375" height="0.18156708581191716" fill="#e69f00"/><rect x="1345.5" y="881.3848129212485" width="0.69375" height="0.6151870787515188" fill="#009e73"/><rect x="1346.59375" y="879.4948245385017" width="0.69375" height="2.5051754614982666" fill="#009e73"/><rect x="1347.6875" y="881.7651991517098" width="0.69375" height="0.2348008482901756" fill="#009e73"/><rect x="1348.78125" y="878.7006118507627" width="0.69375" height="3.299388149237305" fill="#009e73"/><rect x="1349.875" y="873.07227234292" width="0.69375" height="8.927727657080014" fill="#d55e00"/><rect x="1350.96875" y="877.3648021318405" width="0.69375" height="4.635197868159437" fill="#d55e00"/><rect x="1352.0625" y="870.8692975598468" width="0.69375" height="11.130702440153186" fill="#d55e00"/><rect x="1353.15625" y="878.0763517491114" width="0.69375" height="3.9236482508886525" fill="#d55e00"/><rect x="1354.25" y="881.9996405168085" width="0.69375" height="0.0003594831914852087" fill="#6f4aa2"/><rect x="1355.34375" y="881.7863170852188" width="0.69375" height="0.21368291478121568" fill="#6f4aa2"/><rect x="1356.4375" y="881.8905881538412" width="0.69375" height="0.10941184615871848" fill="#6f4aa2"/><rect x="1357.53125" y="881.9999805941616" width="0.69375" height="0.0000194058384217307" fill="#6f4aa2"/><rect x="1358.625" y="881.8156971594511" width="0.69375" height="0.18430284054888313" fill="#56b4e9"/><rect x="1359.71875" y="881.9999249930753" width="0.69375" height="0.00007500692470731698" fill="#56b4e9"/><rect x="1360.8125" y="879.5789380116997" width="0.69375" height="2.4210619883002162" fill="#56b4e9"/><rect x="1361.90625" y="881.9999980507874" width="0.69375" height="0.000001949212523596116" fill="#56b4e9"/><text x="1132" y="912" class="small strong">NMF5</text><rect x="1132" y="921" width="105" height="55" fill="#ffffff" stroke="#e4e9ef"/><rect x="1132" y="921" width="0.69375" height="55" fill="#0072b2"/><rect x="1133.09375" y="948.5133854084538" width="0.69375" height="27.48661459154624" fill="#0072b2"/><rect x="1134.1875" y="962.9337103782831" width="0.69375" height="13.066289621716907" fill="#0072b2"/><rect x="1135.28125" y="936.9583610208608" width="0.69375" height="39.041638979139144" fill="#0072b2"/><rect x="1136.375" y="968.7839420530778" width="0.69375" height="7.216057946922257" fill="#e69f00"/><rect x="1137.46875" y="973.6708848882445" width="0.69375" height="2.329115111755526" fill="#e69f00"/><rect x="1138.5625" y="975.6577067677741" width="0.69375" height="0.34229323222583496" fill="#e69f00"/><rect x="1139.65625" y="971.7698431946328" width="0.69375" height="4.230156805367206" fill="#e69f00"/><rect x="1140.75" y="968.0284472858316" width="0.69375" height="7.971552714168414" fill="#009e73"/><rect x="1141.84375" y="972.5522425055083" width="0.69375" height="3.447757494491708" fill="#009e73"/><rect x="1142.9375" y="973.7637680724863" width="0.69375" height="2.2362319275137157" fill="#009e73"/><rect x="1144.03125" y="972.734084229903" width="0.69375" height="3.265915770096998" fill="#009e73"/><rect x="1145.125" y="969.6938752064183" width="0.69375" height="6.306124793581671" fill="#d55e00"/><rect x="1146.21875" y="973.2325951455757" width="0.69375" height="2.7674048544242966" fill="#d55e00"/><rect x="1147.3125" y="970.1939531279548" width="0.69375" height="5.806046872045162" fill="#d55e00"/><rect x="1148.40625" y="972.4193076622677" width="0.69375" height="3.580692337732324" fill="#d55e00"/><rect x="1149.5" y="971.1675685634239" width="0.69375" height="4.832431436576192" fill="#6f4aa2"/><rect x="1150.59375" y="975.9174038341137" width="0.69375" height="0.08259616588636028" fill="#6f4aa2"/><rect x="1151.6875" y="974.304505203094" width="0.69375" height="1.695494796906054" fill="#6f4aa2"/><rect x="1152.78125" y="974.3410608427466" width="0.69375" height="1.6589391572534224" fill="#6f4aa2"/><rect x="1153.875" y="975.1799725623357" width="0.69375" height="0.8200274376642605" fill="#56b4e9"/><rect x="1154.96875" y="975.8772260244384" width="0.69375" height="0.12277397556161682" fill="#56b4e9"/><rect x="1156.0625" y="975.8860601140692" width="0.69375" height="0.11393988593078355" fill="#56b4e9"/><rect x="1157.15625" y="975.2020798997157" width="0.69375" height="0.797920100284311" fill="#56b4e9"/><rect x="1158.25" y="925.5417505547497" width="0.69375" height="50.45824944525036" fill="#0072b2"/><rect x="1159.34375" y="935.3102401723019" width="0.69375" height="40.68975982769812" fill="#0072b2"/><rect x="1160.4375" y="965.1805643863645" width="0.69375" height="10.819435613635534" fill="#0072b2"/><rect x="1161.53125" y="937.8906380459243" width="0.69375" height="38.10936195407564" fill="#0072b2"/><rect x="1162.625" y="972.867102284843" width="0.69375" height="3.1328977151570143" fill="#e69f00"/><rect x="1163.71875" y="973.4006120123707" width="0.69375" height="2.599387987629237" fill="#e69f00"/><rect x="1164.8125" y="974.9907067219315" width="0.69375" height="1.0092932780685744" fill="#e69f00"/><rect x="1165.90625" y="973.8926989362901" width="0.69375" height="2.107301063709915" fill="#e69f00"/><rect x="1167" y="969.2861406568879" width="0.69375" height="6.713859343112069" fill="#009e73"/><rect x="1168.09375" y="971.4327240542366" width="0.69375" height="4.567275945763463" fill="#009e73"/><rect x="1169.1875" y="974.4130404109253" width="0.69375" height="1.586959589074702" fill="#009e73"/><rect x="1170.28125" y="968.1805572691862" width="0.69375" height="7.819442730813769" fill="#009e73"/><rect x="1171.375" y="973.9703088962583" width="0.69375" height="2.0296911037416714" fill="#d55e00"/><rect x="1172.46875" y="975.4998189810963" width="0.69375" height="0.5001810189037748" fill="#d55e00"/><rect x="1173.5625" y="973.3229225410284" width="0.69375" height="2.6770774589715023" fill="#d55e00"/><rect x="1174.65625" y="973.8140768825538" width="0.69375" height="2.1859231174462352" fill="#d55e00"/><rect x="1175.75" y="975.9884203291031" width="0.69375" height="0.011579670896897638" fill="#6f4aa2"/><rect x="1176.84375" y="975.2114604494823" width="0.69375" height="0.7885395505177141" fill="#6f4aa2"/><rect x="1177.9375" y="975.9864602354888" width="0.69375" height="0.013539764511174229" fill="#6f4aa2"/><rect x="1179.03125" y="975.7629797116336" width="0.69375" height="0.2370202883663923" fill="#6f4aa2"/><rect x="1180.125" y="975.9885387746593" width="0.69375" height="0.01146122534070667" fill="#56b4e9"/><rect x="1181.21875" y="975.8360703627526" width="0.69375" height="0.16392963724740006" fill="#56b4e9"/><rect x="1182.3125" y="975.5051750492311" width="0.69375" height="0.4948249507689009" fill="#56b4e9"/><rect x="1183.40625" y="976" width="0.69375" height="1.623929051836041e-19" fill="#56b4e9"/><rect x="1184.5" y="941.3647494075808" width="0.69375" height="34.63525059241918" fill="#0072b2"/><rect x="1185.59375" y="951.5812972555495" width="0.69375" height="24.418702744450474" fill="#0072b2"/><rect x="1186.6875" y="966.1541213147593" width="0.69375" height="9.845878685240622" fill="#0072b2"/><rect x="1187.78125" y="953.7609680177738" width="0.69375" height="22.239031982226116" fill="#0072b2"/><rect x="1188.875" y="972.8643617707075" width="0.69375" height="3.1356382292924168" fill="#e69f00"/><rect x="1189.96875" y="972.5247712432213" width="0.69375" height="3.4752287567787743" fill="#e69f00"/><rect x="1191.0625" y="974.3547931206754" width="0.69375" height="1.6452068793245758" fill="#e69f00"/><rect x="1192.15625" y="973.2280234441012" width="0.69375" height="2.771976555898851" fill="#e69f00"/><rect x="1193.25" y="974.5459167730669" width="0.69375" height="1.454083226933136" fill="#009e73"/><rect x="1194.34375" y="972.6129920708893" width="0.69375" height="3.387007929110667" fill="#009e73"/><rect x="1195.4375" y="974.4909096087258" width="0.69375" height="1.509090391274176" fill="#009e73"/><rect x="1196.53125" y="972.6167062202707" width="0.69375" height="3.383293779729353" fill="#009e73"/><rect x="1197.625" y="974.2185602363076" width="0.69375" height="1.7814397636924886" fill="#d55e00"/><rect x="1198.71875" y="974.2589415046374" width="0.69375" height="1.741058495362565" fill="#d55e00"/><rect x="1199.8125" y="974.6375565509961" width="0.69375" height="1.3624434490038226" fill="#d55e00"/><rect x="1200.90625" y="974.5493228416104" width="0.69375" height="1.4506771583895486" fill="#d55e00"/><rect x="1202" y="975.92919076092" width="0.69375" height="0.07080923907993063" fill="#6f4aa2"/><rect x="1203.09375" y="975.5075190594811" width="0.69375" height="0.4924809405189572" fill="#6f4aa2"/><rect x="1204.1875" y="975.9466282743704" width="0.69375" height="0.053371725629577434" fill="#6f4aa2"/><rect x="1205.28125" y="975.962977081065" width="0.69375" height="0.03702291893501481" fill="#6f4aa2"/><rect x="1206.375" y="975.9600302897755" width="0.69375" height="0.039969710224443684" fill="#56b4e9"/><rect x="1207.46875" y="975.7567281441203" width="0.69375" height="0.24327185587970374" fill="#56b4e9"/><rect x="1208.5625" y="975.9554460837966" width="0.69375" height="0.044553916203402016" fill="#56b4e9"/><rect x="1209.65625" y="975.9163728332816" width="0.69375" height="0.08362716671847412" fill="#56b4e9"/><rect x="1210.75" y="936.4128795228223" width="0.69375" height="39.5871204771777" fill="#0072b2"/><rect x="1211.84375" y="939.3120747087878" width="0.69375" height="36.68792529121222" fill="#0072b2"/><rect x="1212.9375" y="969.2291850800354" width="0.69375" height="6.770814919964556" fill="#0072b2"/><rect x="1214.03125" y="935.018192107044" width="0.69375" height="40.98180789295603" fill="#0072b2"/><rect x="1215.125" y="975.9975486767662" width="0.69375" height="0.0024513232338513827" fill="#e69f00"/><rect x="1216.21875" y="974.3523537756232" width="0.69375" height="1.647646224376748" fill="#e69f00"/><rect x="1217.3125" y="975.451811553716" width="0.69375" height="0.5481884462840492" fill="#e69f00"/><rect x="1218.40625" y="975.2433631232287" width="0.69375" height="0.7566368767712791" fill="#e69f00"/><rect x="1219.5" y="973.8304445531807" width="0.69375" height="2.1695554468193974" fill="#009e73"/><rect x="1220.59375" y="972.8868534202916" width="0.69375" height="3.1131465797084243" fill="#009e73"/><rect x="1221.6875" y="975.780695251275" width="0.69375" height="0.21930474872496974" fill="#009e73"/><rect x="1222.78125" y="972.000755156834" width="0.69375" height="3.999244843166052" fill="#009e73"/><rect x="1223.875" y="972.6563915680416" width="0.69375" height="3.343608431958375" fill="#d55e00"/><rect x="1224.96875" y="974.4316409226857" width="0.69375" height="1.5683590773143217" fill="#d55e00"/><rect x="1226.0625" y="974.4160183080634" width="0.69375" height="1.5839816919366196" fill="#d55e00"/><rect x="1227.15625" y="971.6417827847243" width="0.69375" height="4.358217215275709" fill="#d55e00"/><rect x="1228.25" y="975.4527107084011" width="0.69375" height="0.547289291598824" fill="#6f4aa2"/><rect x="1229.34375" y="975.239612526566" width="0.69375" height="0.7603874734340175" fill="#6f4aa2"/><rect x="1230.4375" y="975.6808014326866" width="0.69375" height="0.31919856731336543" fill="#6f4aa2"/><rect x="1231.53125" y="975.9933592991363" width="0.69375" height="0.0066407008637116" fill="#6f4aa2"/><rect x="1232.625" y="975.8251576467972" width="0.69375" height="0.1748423532028431" fill="#56b4e9"/><rect x="1233.71875" y="975.7318393031766" width="0.69375" height="0.26816069682343613" fill="#56b4e9"/><rect x="1234.8125" y="975.7115129406594" width="0.69375" height="0.2884870593405717" fill="#56b4e9"/><rect x="1235.90625" y="974.1897683056378" width="0.69375" height="1.8102316943621921" fill="#56b4e9"/><text x="1258" y="912" class="small strong">NMF6</text><rect x="1258" y="921" width="105" height="55" fill="#ffffff" stroke="#e4e9ef"/><rect x="1258" y="975.3994199846483" width="0.69375" height="0.6005800153517789" fill="#0072b2"/><rect x="1259.09375" y="975.2489548033449" width="0.69375" height="0.7510451966551072" fill="#0072b2"/><rect x="1260.1875" y="975.9996549632633" width="0.69375" height="0.000345036736735172" fill="#0072b2"/><rect x="1261.28125" y="975.3108188661089" width="0.69375" height="0.689181133891134" fill="#0072b2"/><rect x="1262.375" y="975.9699769615111" width="0.69375" height="0.03002303848892959" fill="#e69f00"/><rect x="1263.46875" y="975.7304856876954" width="0.69375" height="0.2695143123046156" fill="#e69f00"/><rect x="1264.5625" y="975.999469125665" width="0.69375" height="0.0005308743350249504" fill="#e69f00"/><rect x="1265.65625" y="975.3880922906316" width="0.69375" height="0.6119077093684021" fill="#e69f00"/><rect x="1266.75" y="974.0935852902461" width="0.69375" height="1.9064147097538562" fill="#009e73"/><rect x="1267.84375" y="975.0144368366142" width="0.69375" height="0.9855631633858184" fill="#009e73"/><rect x="1268.9375" y="974.2216346644934" width="0.69375" height="1.7783653355065268" fill="#009e73"/><rect x="1270.03125" y="975.4852118821103" width="0.69375" height="0.514788117889717" fill="#009e73"/><rect x="1271.125" y="975.1781557562267" width="0.69375" height="0.8218442437733129" fill="#d55e00"/><rect x="1272.21875" y="975.2483764782435" width="0.69375" height="0.7516235217565247" fill="#d55e00"/><rect x="1273.3125" y="975.4113712198556" width="0.69375" height="0.5886287801443614" fill="#d55e00"/><rect x="1274.40625" y="974.906385106132" width="0.69375" height="1.0936148938680306" fill="#d55e00"/><rect x="1275.5" y="975.9972836510159" width="0.69375" height="0.0027163489841390185" fill="#6f4aa2"/><rect x="1276.59375" y="975.7186484794689" width="0.69375" height="0.2813515205310249" fill="#6f4aa2"/><rect x="1277.6875" y="975.9620659915744" width="0.69375" height="0.03793400842557508" fill="#6f4aa2"/><rect x="1278.78125" y="975.0017090638457" width="0.69375" height="0.9982909361542216" fill="#6f4aa2"/><rect x="1279.875" y="975.4612272820505" width="0.69375" height="0.538772717949548" fill="#56b4e9"/><rect x="1280.96875" y="975.8611142656493" width="0.69375" height="0.13888573435068655" fill="#56b4e9"/><rect x="1282.0625" y="975.7103225027937" width="0.69375" height="0.28967749720631664" fill="#56b4e9"/><rect x="1283.15625" y="975.6023270822286" width="0.69375" height="0.3976729177714261" fill="#56b4e9"/><rect x="1284.25" y="975.0360378927111" width="0.69375" height="0.9639621072889478" fill="#0072b2"/><rect x="1285.34375" y="975.0056423044475" width="0.69375" height="0.9943576955524615" fill="#0072b2"/><rect x="1286.4375" y="975.908973875664" width="0.69375" height="0.09102612433610778" fill="#0072b2"/><rect x="1287.53125" y="974.7963431003595" width="0.69375" height="1.203656899640499" fill="#0072b2"/><rect x="1288.625" y="975.5002208057927" width="0.69375" height="0.4997791942073661" fill="#e69f00"/><rect x="1289.71875" y="975.6537830436798" width="0.69375" height="0.3462169563201618" fill="#e69f00"/><rect x="1290.8125" y="975.9886973006153" width="0.69375" height="0.011302699384715382" fill="#e69f00"/><rect x="1291.90625" y="975.6701157132259" width="0.69375" height="0.32988428677414494" fill="#e69f00"/><rect x="1293" y="972.2120881510598" width="0.69375" height="3.7879118489401575" fill="#009e73"/><rect x="1294.09375" y="974.4041894872095" width="0.69375" height="1.595810512790583" fill="#009e73"/><rect x="1295.1875" y="974.6974847726228" width="0.69375" height="1.3025152273771545" fill="#009e73"/><rect x="1296.28125" y="974.655574650516" width="0.69375" height="1.3444253494840384" fill="#009e73"/><rect x="1297.375" y="975.5024548108969" width="0.69375" height="0.4975451891030893" fill="#d55e00"/><rect x="1298.46875" y="975.3392270142491" width="0.69375" height="0.6607729857509136" fill="#d55e00"/><rect x="1299.5625" y="975.2818411668419" width="0.69375" height="0.7181588331581461" fill="#d55e00"/><rect x="1300.65625" y="975.2240476535256" width="0.69375" height="0.77595234647431" fill="#d55e00"/><rect x="1301.75" y="975.9999948918736" width="0.69375" height="0.000005108126380822277" fill="#6f4aa2"/><rect x="1302.84375" y="975.5831111995099" width="0.69375" height="0.4168888004901909" fill="#6f4aa2"/><rect x="1303.9375" y="975.9227424518873" width="0.69375" height="0.07725754811267864" fill="#6f4aa2"/><rect x="1305.03125" y="975.2244986998454" width="0.69375" height="0.7755013001545874" fill="#6f4aa2"/><rect x="1306.125" y="975.741495851015" width="0.69375" height="0.25850414898504714" fill="#56b4e9"/><rect x="1307.21875" y="975.7726571480094" width="0.69375" height="0.22734285199059645" fill="#56b4e9"/><rect x="1308.3125" y="975.8808200381155" width="0.69375" height="0.11917996188452534" fill="#56b4e9"/><rect x="1309.40625" y="975.6009017842396" width="0.69375" height="0.39909821576044413" fill="#56b4e9"/><rect x="1310.5" y="975.1389594668087" width="0.69375" height="0.8610405331912343" fill="#0072b2"/><rect x="1311.59375" y="975.1548558912402" width="0.69375" height="0.8451441087597226" fill="#0072b2"/><rect x="1312.6875" y="975.9999751019756" width="0.69375" height="0.00002489802438979838" fill="#0072b2"/><rect x="1313.78125" y="974.9282399281519" width="0.69375" height="1.0717600718480818" fill="#0072b2"/><rect x="1314.875" y="975.9981104537907" width="0.69375" height="0.001889546209371682" fill="#e69f00"/><rect x="1315.96875" y="975.6156836497116" width="0.69375" height="0.3843163502883974" fill="#e69f00"/><rect x="1317.0625" y="975.998748575774" width="0.69375" height="0.0012514242259884234" fill="#e69f00"/><rect x="1318.15625" y="975.5444140689436" width="0.69375" height="0.45558593105631445" fill="#e69f00"/><rect x="1319.25" y="973.9734783679334" width="0.69375" height="2.026521632066684" fill="#009e73"/><rect x="1320.34375" y="974.6742818950235" width="0.69375" height="1.325718104976553" fill="#009e73"/><rect x="1321.4375" y="974.3677289017197" width="0.69375" height="1.632271098280235" fill="#009e73"/><rect x="1322.53125" y="975.0203465126087" width="0.69375" height="0.9796534873912851" fill="#009e73"/><rect x="1323.625" y="975.9589661654546" width="0.69375" height="0.04103383454538417" fill="#d55e00"/><rect x="1324.71875" y="975.6322820244578" width="0.69375" height="0.36771797554212954" fill="#d55e00"/><rect x="1325.8125" y="975.6127670079059" width="0.69375" height="0.38723299209417683" fill="#d55e00"/><rect x="1326.90625" y="975.579506468317" width="0.69375" height="0.42049353168291703" fill="#d55e00"/><rect x="1328" y="975.9645004379896" width="0.69375" height="0.035499562010426686" fill="#6f4aa2"/><rect x="1329.09375" y="975.5386013775612" width="0.69375" height="0.46139862243876417" fill="#6f4aa2"/><rect x="1330.1875" y="975.9016102330676" width="0.69375" height="0.09838976693240498" fill="#6f4aa2"/><rect x="1331.28125" y="975.5208292644226" width="0.69375" height="0.47917073557744244" fill="#6f4aa2"/><rect x="1332.375" y="975.906455648866" width="0.69375" height="0.09354435113408165" fill="#56b4e9"/><rect x="1333.46875" y="975.8833332649326" width="0.69375" height="0.1166667350673899" fill="#56b4e9"/><rect x="1334.5625" y="975.5958697214928" width="0.69375" height="0.40413027850723265" fill="#56b4e9"/><rect x="1335.65625" y="975.3684230023797" width="0.69375" height="0.6315769976203081" fill="#56b4e9"/><rect x="1336.75" y="972.3148474521663" width="0.69375" height="3.6851525478337357" fill="#0072b2"/><rect x="1337.84375" y="973.9315078985057" width="0.69375" height="2.0684921014942663" fill="#0072b2"/><rect x="1338.9375" y="975.6748693925298" width="0.69375" height="0.32513060747019945" fill="#0072b2"/><rect x="1340.03125" y="972.9849316830134" width="0.69375" height="3.0150683169865964" fill="#0072b2"/><rect x="1341.125" y="960.7592401370466" width="0.69375" height="15.240759862953347" fill="#e69f00"/><rect x="1342.21875" y="972.5816181323363" width="0.69375" height="3.4183818676637134" fill="#e69f00"/><rect x="1343.3125" y="975.1969538641029" width="0.69375" height="0.8030461358971428" fill="#e69f00"/><rect x="1344.40625" y="959.2315697987761" width="0.69375" height="16.768430201223875" fill="#e69f00"/><rect x="1345.5" y="921" width="0.69375" height="55" fill="#009e73"/><rect x="1346.59375" y="963.9438417395673" width="0.69375" height="12.05615826043261" fill="#009e73"/><rect x="1347.6875" y="970.2102880136227" width="0.69375" height="5.78971198637725" fill="#009e73"/><rect x="1348.78125" y="946.896183496925" width="0.69375" height="29.10381650307494" fill="#009e73"/><rect x="1349.875" y="975.2005752113" width="0.69375" height="0.7994247887000152" fill="#d55e00"/><rect x="1350.96875" y="975.5681604646281" width="0.69375" height="0.4318395353718493" fill="#d55e00"/><rect x="1352.0625" y="975.712940661713" width="0.69375" height="0.28705933828701385" fill="#d55e00"/><rect x="1353.15625" y="975.205554220942" width="0.69375" height="0.7944457790580876" fill="#d55e00"/><rect x="1354.25" y="975.9827589929325" width="0.69375" height="0.01724100706741367" fill="#6f4aa2"/><rect x="1355.34375" y="975.714040613162" width="0.69375" height="0.28595938683808453" fill="#6f4aa2"/><rect x="1356.4375" y="975.9641599754207" width="0.69375" height="0.035840024579282356" fill="#6f4aa2"/><rect x="1357.53125" y="975.4234170842285" width="0.69375" height="0.5765829157715049" fill="#6f4aa2"/><rect x="1358.625" y="975.4824913001657" width="0.69375" height="0.5175086998342345" fill="#56b4e9"/><rect x="1359.71875" y="975.785852558556" width="0.69375" height="0.2141474414439485" fill="#56b4e9"/><rect x="1360.8125" y="975.5437071129256" width="0.69375" height="0.4562928870743429" fill="#56b4e9"/><rect x="1361.90625" y="975.832972772517" width="0.69375" height="0.16702722748297932" fill="#56b4e9"/><text x="825" y="1030" class="small">Rank-6 extraction uses seed 20260521, 8 starts, and 700 maximum iterations.</text>
  <text x="70" y="1120" class="small">Generated from saved public cohort input with native SDK NNLS/QC/NMF; seed 20260521; commit 10c5ecfd1eb3394bd72c5027d7d6f5f9090a9be9.</text>
</svg>
