<?xml version="1.0" encoding="UTF-8"?>
<svg xmlns="http://www.w3.org/2000/svg" width="1500" height="900" viewBox="0 0 1500 900" role="img">
  <style>
    text { font-family: Arial, Helvetica, sans-serif; fill: #16212f; letter-spacing: 0; }
    .white { fill: #ffffff !important; }
    .title { font-size: 34px; font-weight: 700; }
    .subtitle { font-size: 18px; fill: #5d6978; }
    .label { font-size: 17px; }
    .small { font-size: 14px; fill: #5d6978; }
    .strong { font-weight: 700; fill: #16212f; }
    .value { font-size: 20px; font-weight: 700; }
    .axis-title { font-size: 15px; font-weight: 700; fill: #5d6978; }
  </style>
  <rect width="1500" height="900" fill="#ffffff"/>
  <text x="70" y="70" class="title">Figure 4. Exposure-solve scenarios only</text><text x="70" y="102" class="subtitle">Warm-start browser distributions from &gt;=20 isolated repeats per scenario; dots are medians and bars are IQR.</text>
  <rect x="115" y="160" width="1250" height="515" fill="#ffffff" stroke="#e4e9ef"/>
  <line x1="115" x2="1365" y1="673.3740200805491" y2="673.3740200805491" stroke="#e4e9ef"/><text x="97" y="677.3740200805491" text-anchor="end" class="small">1</text><line x1="115" x2="1365" y1="612.138605930222" y2="612.138605930222" stroke="#e4e9ef"/><text x="97" y="616.138605930222" text-anchor="end" class="small">3</text><line x1="115" x2="1365" y1="545.0305150604119" y2="545.0305150604119" stroke="#e4e9ef"/><text x="97" y="549.0305150604119" text-anchor="end" class="small">10</text><line x1="115" x2="1365" y1="483.7951009100846" y2="483.7951009100846" stroke="#e4e9ef"/><text x="97" y="487.7951009100846" text-anchor="end" class="small">30</text><line x1="115" x2="1365" y1="416.6870100402745" y2="416.6870100402745" stroke="#e4e9ef"/><text x="97" y="420.6870100402745" text-anchor="end" class="small">100</text><line x1="115" x2="1365" y1="355.4515958899473" y2="355.4515958899473" stroke="#e4e9ef"/><text x="97" y="359.4515958899473" text-anchor="end" class="small">300</text><line x1="115" x2="1365" y1="288.34350502013723" y2="288.34350502013723" stroke="#e4e9ef"/><text x="97" y="292.34350502013723" text-anchor="end" class="small">1k</text><line x1="115" x2="1365" y1="227.10809086981004" y2="227.10809086981004" stroke="#e4e9ef"/><text x="97" y="231.10809086981004" text-anchor="end" class="small">3k</text><line x1="115" x2="1365" y1="160" y2="160" stroke="#e4e9ef"/><text x="97" y="164" text-anchor="end" class="small">10k</text>
  <line x1="212" y1="672.8884251178016" x2="212" y2="652.471615602249" stroke="#0072b2" stroke-width="8" stroke-linecap="round" opacity="0.52"/><circle cx="212" cy="663.3278656625712" r="8" fill="#0072b2" stroke="#ffffff" stroke-width="2"/><line x1="240" y1="675" x2="240" y2="662.461894438158" stroke="#009e73" stroke-width="8" stroke-linecap="round" opacity="0.52"/><circle cx="240" cy="669.7331804814006" r="8" fill="#009e73" stroke="#ffffff" stroke-width="2"/><line x1="268" y1="617.1915785236437" x2="268" y2="612.9810231143019" stroke="#e69f00" stroke-width="8" stroke-linecap="round" opacity="0.52"/><circle cx="268" cy="614.2207754849517" r="8" fill="#e69f00" stroke="#ffffff" stroke-width="2"/><line x1="462" y1="512.7851499792662" x2="462" y2="510.53775790809743" stroke="#0072b2" stroke-width="8" stroke-linecap="round" opacity="0.52"/><circle cx="462" cy="511.70566241282353" r="8" fill="#0072b2" stroke="#ffffff" stroke-width="2"/><line x1="490" y1="516.2547163016114" x2="490" y2="511.77084272347906" stroke="#009e73" stroke-width="8" stroke-linecap="round" opacity="0.52"/><circle cx="490" cy="514.462736439229" r="8" fill="#009e73" stroke="#ffffff" stroke-width="2"/><line x1="518" y1="493.9017885345523" x2="518" y2="490.53115715914475" stroke="#e69f00" stroke-width="8" stroke-linecap="round" opacity="0.52"/><circle cx="518" cy="493.3366942048801" r="8" fill="#e69f00" stroke="#ffffff" stroke-width="2"/><line x1="712" y1="260.310384955289" x2="712" y2="252.98975297283658" stroke="#0072b2" stroke-width="8" stroke-linecap="round" opacity="0.52"/><circle cx="712" cy="257.1873123688339" r="8" fill="#0072b2" stroke="#ffffff" stroke-width="2"/><line x1="740" y1="261.74632188571536" x2="740" y2="258.74827887725183" stroke="#009e73" stroke-width="8" stroke-linecap="round" opacity="0.52"/><circle cx="740" cy="260.34258558763497" r="8" fill="#009e73" stroke="#ffffff" stroke-width="2"/><line x1="768" y1="230.2469080104621" x2="768" y2="228.08932060434734" stroke="#e69f00" stroke-width="8" stroke-linecap="round" opacity="0.52"/><circle cx="768" cy="229.29837132907176" r="8" fill="#e69f00" stroke="#ffffff" stroke-width="2"/><line x1="962" y1="370.5568188548085" x2="962" y2="360.63109070150375" stroke="#0072b2" stroke-width="8" stroke-linecap="round" opacity="0.52"/><circle cx="962" cy="368.38215683740293" r="8" fill="#0072b2" stroke="#ffffff" stroke-width="2"/><line x1="990" y1="372.14234784236265" x2="990" y2="366.5232252315304" stroke="#009e73" stroke-width="8" stroke-linecap="round" opacity="0.52"/><circle cx="990" cy="369.57456003981775" r="8" fill="#009e73" stroke="#ffffff" stroke-width="2"/><line x1="1018" y1="368.94439262723176" x2="1018" y2="367.680736782814" stroke="#e69f00" stroke-width="8" stroke-linecap="round" opacity="0.52"/><circle cx="1018" cy="368.222470795142" r="8" fill="#e69f00" stroke="#ffffff" stroke-width="2"/><line x1="1212" y1="226.80081951283" x2="1212" y2="222.04803880585956" stroke="#0072b2" stroke-width="8" stroke-linecap="round" opacity="0.52"/><circle cx="1212" cy="223.5784106343812" r="8" fill="#0072b2" stroke="#ffffff" stroke-width="2"/><line x1="1240" y1="227.36221148924955" x2="1240" y2="225.2371073543403" stroke="#009e73" stroke-width="8" stroke-linecap="round" opacity="0.52"/><circle cx="1240" cy="226.15360682192784" r="8" fill="#009e73" stroke="#ffffff" stroke-width="2"/><line x1="1268" y1="243.0999543983769" x2="1268" y2="241.1357459607134" stroke="#e69f00" stroke-width="8" stroke-linecap="round" opacity="0.52"/><circle cx="1268" cy="242.68993695750925" r="8" fill="#e69f00" stroke="#ffffff" stroke-width="2"/>
  <text x="240" y="717" text-anchor="middle" class="small strong">Single sample</text><text x="490" y="717" text-anchor="middle" class="small strong">120 sample</text><text x="740" y="717" text-anchor="middle" class="small strong">300 x 40</text><text x="990" y="717" text-anchor="middle" class="small strong">Bootstrap 500</text><text x="1240" y="717" text-anchor="middle" class="small strong">NMF rank+4</text>
  <circle cx="1045" cy="120" r="7" fill="#0072b2"/><text x="1060" y="125" class="small">Chrome</text><circle cx="1165" cy="120" r="7" fill="#009e73"/><text x="1180" y="125" class="small">Edge</text><circle cx="1285" cy="120" r="7" fill="#e69f00"/><text x="1300" y="125" class="small">Firefox</text>
  <text x="48" y="417.5" text-anchor="middle" class="axis-title" transform="rotate(-90 48 417.5)">Wall-clock ms, log scale</text>
  <text x="115" y="735" class="small">Raw data include cold-start and warm-start phases plus load/network/module/compute/serialization fields. Warm medians shown here range 1.07-3196.12 ms; cold medians range 1305.99-6094.38 ms.</text>
  <text x="115" y="765" class="small">Peak JS heap is available only where the browser exposes performance.memory; Firefox reports unavailable in the raw artifact.</text>
</svg>
