<?xml version="1.0" encoding="UTF-8"?>
<svg xmlns="http://www.w3.org/2000/svg" width="1200" height="620" viewBox="0 0 1200 620" role="img">
  <style>
    text { font-family: Arial, Helvetica, sans-serif; fill: #16212f; letter-spacing: 0; }
    .white { fill: #ffffff !important; }
    .title { font-size: 34px; font-weight: 700; }
    .subtitle { font-size: 18px; fill: #5d6978; }
    .label { font-size: 17px; }
    .small { font-size: 14px; fill: #5d6978; }
    .strong { font-weight: 700; fill: #16212f; }
    .value { font-size: 20px; font-weight: 700; }
    .axis-title { font-size: 15px; font-weight: 700; fill: #5d6978; }
  </style>
  <rect width="1200" height="620" fill="#ffffff"/>
  <text x="70" y="65" class="title">Figure 2. Zero-install timing</text><text x="70" y="97" class="subtitle">All labels are cumulative seconds from page-load start in the fresh-profile Chrome run.</text>
  <rect x="310" y="170" width="800" height="270" fill="#ffffff" stroke="#e4e9ef"/>
  <text x="284" y="205" text-anchor="end" class="label">SDK imported</text><rect x="310" y="185" width="755.1427999336399" height="26" rx="5" fill="#0072b2" opacity="0.74"/><text x="1077.14279993364" y="205" class="value" text-anchor="end">4.71 s</text><text x="284" y="263" text-anchor="end" class="label">mSigPortal data fetched</text><rect x="310" y="243" width="796.229921895231" height="26" rx="5" fill="#0072b2" opacity="0.74"/><text x="1105" y="263" class="value" text-anchor="end">4.97 s</text><text x="284" y="321" text-anchor="end" class="label">Single-sample fit completed</text><rect x="310" y="301" width="799.6058481813502" height="26" rx="5" fill="#0072b2" opacity="0.74"/><text x="1105" y="321" class="value" text-anchor="end">4.99 s</text><text x="284" y="379" text-anchor="end" class="label">SDK report generated</text><rect x="310" y="359" width="800" height="26" rx="5" fill="#009e73" opacity="0.92"/><text x="1105" y="379" class="value" text-anchor="end">4.99 s</text>
  <g><line x1="310" y1="440" x2="310" y2="450" stroke="#16212f"/><text x="310" y="476" text-anchor="middle" class="small">0.0</text></g><g><line x1="510" y1="440" x2="510" y2="450" stroke="#16212f"/><text x="510" y="476" text-anchor="middle" class="small">1.2</text></g><g><line x1="710" y1="440" x2="710" y2="450" stroke="#16212f"/><text x="710" y="476" text-anchor="middle" class="small">2.5</text></g><g><line x1="910" y1="440" x2="910" y2="450" stroke="#16212f"/><text x="910" y="476" text-anchor="middle" class="small">3.7</text></g><g><line x1="1110" y1="440" x2="1110" y2="450" stroke="#16212f"/><text x="1110" y="476" text-anchor="middle" class="small">5.0</text></g>
  <text x="710" y="510" text-anchor="middle" class="axis-title">Cumulative elapsed seconds from page-load start</text>
  <rect x="95" y="532" width="1010" height="58" rx="10" fill="#f8fbfd" stroke="#e4e9ef"/>
  <text x="120" y="565" class="label">Measured current run: report-ready in 4.99 s; browser Chrome; fresh profile with no-store local server headers.</text>
</svg>
